<?xml version="1.0" encoding="UTF-8" standalone="no"?>
<!DOCTYPE svg PUBLIC "-//W3C//DTD SVG 1.1//EN"
 "http://www.w3.org/Graphics/SVG/1.1/DTD/svg11.dtd">
<!-- Generated by graphviz version 8.0.3 (20230416.2022)
 -->
<!-- Title: build_flow Pages: 1 -->
<svg width="825pt" height="213pt"
 viewBox="0.00 0.00 825.40 213.40" xmlns="http://www.w3.org/2000/svg" xmlns:xlink="http://www.w3.org/1999/xlink">
<g id="graph0" class="graph" transform="scale(1 1) rotate(0) translate(7.2 206.2)">
<title>build_flow</title>
<polygon fill="white" stroke="none" points="-7.2,7.2 -7.2,-206.2 818.2,-206.2 818.2,7.2 -7.2,7.2"/>
<!-- build_system -->
<g id="node1" class="node">
<title>build_system</title>
<path fill="#e7e7e7" stroke="#5a5a5a" stroke-width="1.7" d="M63,-199C63,-199 25,-199 25,-199 19,-199 13,-193 13,-187 13,-187 13,-171 13,-171 13,-165 19,-159 25,-159 25,-159 63,-159 63,-159 69,-159 75,-165 75,-171 75,-171 75,-187 75,-187 75,-193 69,-199 63,-199"/>
<text text-anchor="middle" x="44" y="-182.4" font-family="Helvetica,sans-Serif" font-size="12.00">Build</text>
<text text-anchor="middle" x="44" y="-169.4" font-family="Helvetica,sans-Serif" font-size="12.00">system</text>
</g>
<!-- fusesoc_graph -->
<g id="node2" class="node">
<title>fusesoc_graph</title>
<path fill="#e7e7e7" stroke="#5a5a5a" stroke-width="1.7" d="M76,-79C76,-79 12,-79 12,-79 6,-79 0,-73 0,-67 0,-67 0,-51 0,-51 0,-45 6,-39 12,-39 12,-39 76,-39 76,-39 82,-39 88,-45 88,-51 88,-51 88,-67 88,-67 88,-73 82,-79 76,-79"/>
<text text-anchor="middle" x="44" y="-62.4" font-family="Helvetica,sans-Serif" font-size="12.00">FuseSoC</text>
<text text-anchor="middle" x="44" y="-49.4" font-family="Helvetica,sans-Serif" font-size="12.00">intent graph</text>
</g>
<!-- build_system&#45;&gt;fusesoc_graph -->
<g id="edge1" class="edge">
<title>build_system&#45;&gt;fusesoc_graph</title>
<path fill="none" stroke="#7a7a7a" stroke-width="1.6" d="M44,-158.72C44,-135.82 44,-112.93 44,-90.03"/>
<polygon fill="#7a7a7a" stroke="#7a7a7a" stroke-width="1.6" points="47.15,-90.16 44,-81.16 40.85,-90.16 47.15,-90.16"/>
</g>
<!-- linux_chain -->
<g id="node3" class="node">
<title>linux_chain</title>
<polygon fill="#e7e7e7" stroke="#5a5a5a" stroke-width="1.7" points="316,-120 225,-120 225,-116 221,-116 221,-112 225,-112 225,-88 221,-88 221,-84 225,-84 225,-80 316,-80 316,-120"/>
<polyline fill="none" stroke="#5a5a5a" stroke-width="1.7" points="225,-116 229,-116 229,-112 225,-112"/>
<polyline fill="none" stroke="#5a5a5a" stroke-width="1.7" points="225,-88 229,-88 229,-84 225,-84"/>
<text text-anchor="middle" x="270.5" y="-103.4" font-family="Helvetica,sans-Serif" font-size="12.00">Native Linux</text>
<text text-anchor="middle" x="270.5" y="-90.4" font-family="Helvetica,sans-Serif" font-size="12.00">entrypoint</text>
</g>
<!-- fusesoc_graph&#45;&gt;linux_chain -->
<g id="edge2" class="edge">
<title>fusesoc_graph&#45;&gt;linux_chain</title>
<path fill="none" stroke="#9c755f" stroke-width="1.7" stroke-dasharray="5,2" d="M88.29,-66.91C124.16,-73.46 175.37,-82.81 214.21,-89.9"/>
<polygon fill="#9c755f" stroke="#9c755f" stroke-width="1.7" points="213.39,-93.32 222.81,-91.84 214.52,-87.12 213.39,-93.32"/>
<text text-anchor="middle" x="151" y="-86.6" font-family="Helvetica,sans-Serif" font-size="10.50">source graph</text>
</g>
<!-- wsl_chain -->
<g id="node4" class="node">
<title>wsl_chain</title>
<polygon fill="#e7e7e7" stroke="#5a5a5a" stroke-width="1.7" points="327,-40 214,-40 214,-36 210,-36 210,-32 214,-32 214,-8 210,-8 210,-4 214,-4 214,0 327,0 327,-40"/>
<polyline fill="none" stroke="#5a5a5a" stroke-width="1.7" points="214,-36 218,-36 218,-32 214,-32"/>
<polyline fill="none" stroke="#5a5a5a" stroke-width="1.7" points="214,-8 218,-8 218,-4 214,-4"/>
<text text-anchor="middle" x="270.5" y="-23.4" font-family="Helvetica,sans-Serif" font-size="12.00">WSL + Windows</text>
<text text-anchor="middle" x="270.5" y="-10.4" font-family="Helvetica,sans-Serif" font-size="12.00">entrypoint</text>
</g>
<!-- fusesoc_graph&#45;&gt;wsl_chain -->
<g id="edge3" class="edge">
<title>fusesoc_graph&#45;&gt;wsl_chain</title>
<path fill="none" stroke="#9c755f" stroke-width="1.7" stroke-dasharray="5,2" d="M88.25,-41.01C98.2,-37.49 108.85,-34.21 119,-32 146.12,-26.09 176.56,-23.01 202.93,-21.44"/>
<polygon fill="#9c755f" stroke="#9c755f" stroke-width="1.7" points="202.76,-24.5 211.58,-20.87 202.43,-18.2 202.76,-24.5"/>
<text text-anchor="middle" x="151" y="-35.6" font-family="Helvetica,sans-Serif" font-size="10.50">source graph</text>
</g>
<!-- implementation_backend -->
<g id="node5" class="node">
<title>implementation_backend</title>
<polygon fill="#e7e7e7" stroke="#5a5a5a" stroke-width="1.7" points="565,-79 458,-79 458,-75 454,-75 454,-71 458,-71 458,-47 454,-47 454,-43 458,-43 458,-39 565,-39 565,-79"/>
<polyline fill="none" stroke="#5a5a5a" stroke-width="1.7" points="458,-75 462,-75 462,-71 458,-71"/>
<polyline fill="none" stroke="#5a5a5a" stroke-width="1.7" points="458,-47 462,-47 462,-43 458,-43"/>
<text text-anchor="middle" x="511.5" y="-62.4" font-family="Helvetica,sans-Serif" font-size="12.00">Vivado + XSCT</text>
<text text-anchor="middle" x="511.5" y="-49.4" font-family="Helvetica,sans-Serif" font-size="12.00">implementation</text>
</g>
<!-- linux_chain&#45;&gt;implementation_backend -->
<g id="edge4" class="edge">
<title>linux_chain&#45;&gt;implementation_backend</title>
<path fill="none" stroke="#9c755f" stroke-width="1.7" stroke-dasharray="5,2" d="M316.45,-92.29C353.32,-85.96 405.95,-76.94 447.09,-69.88"/>
<polygon fill="#9c755f" stroke="#9c755f" stroke-width="1.7" points="447.49,-72.66 455.83,-68.04 446.43,-66.45 447.49,-72.66"/>
<text text-anchor="middle" x="392.5" y="-87.6" font-family="Helvetica,sans-Serif" font-size="10.50">tool invocation</text>
</g>
<!-- wsl_chain&#45;&gt;implementation_backend -->
<g id="edge5" class="edge">
<title>wsl_chain&#45;&gt;implementation_backend</title>
<path fill="none" stroke="#9c755f" stroke-width="1.7" stroke-dasharray="5,2" d="M327.35,-21.13C357.15,-22.53 394.33,-25.55 427,-32 433.57,-33.3 440.35,-34.95 447.07,-36.79"/>
<polygon fill="#9c755f" stroke="#9c755f" stroke-width="1.7" points="446.02,-40.34 455.54,-39.81 447.77,-34.29 446.02,-40.34"/>
<text text-anchor="middle" x="392.5" y="-35.6" font-family="Helvetica,sans-Serif" font-size="10.50">tool invocation</text>
</g>
<!-- artifact_bundle -->
<g id="node6" class="node">
<title>artifact_bundle</title>
<polygon fill="#e7e7e7" stroke="#5a5a5a" stroke-width="1.7" points="811,-79 694,-79 694,-75 690,-75 690,-71 694,-71 694,-47 690,-47 690,-43 694,-43 694,-39 811,-39 811,-79"/>
<polyline fill="none" stroke="#5a5a5a" stroke-width="1.7" points="694,-75 698,-75 698,-71 694,-71"/>
<polyline fill="none" stroke="#5a5a5a" stroke-width="1.7" points="694,-47 698,-47 698,-43 694,-43"/>
<text text-anchor="middle" x="752.5" y="-62.4" font-family="Helvetica,sans-Serif" font-size="12.00">Artifacts</text>
<text text-anchor="middle" x="752.5" y="-49.4" font-family="Helvetica,sans-Serif" font-size="12.00">.bit .bin .xsa .dtbo</text>
</g>
<!-- implementation_backend&#45;&gt;artifact_bundle -->
<g id="edge6" class="edge">
<title>implementation_backend&#45;&gt;artifact_bundle</title>
<path fill="none" stroke="#9c755f" stroke-width="1.9" d="M565.25,-59C599.9,-59 645.59,-59 683.04,-59"/>
<polygon fill="#9c755f" stroke="#9c755f" stroke-width="1.9" points="682.87,-62.15 691.87,-59 682.87,-55.85 682.87,-62.15"/>
<text text-anchor="middle" x="629.5" y="-62.6" font-family="Helvetica,sans-Serif" font-size="10.50">build products</text>
</g>
</g>
</svg>
