<?xml version="1.0" encoding="UTF-8" standalone="no"?>
<!DOCTYPE svg PUBLIC "-//W3C//DTD SVG 1.1//EN"
 "http://www.w3.org/Graphics/SVG/1.1/DTD/svg11.dtd">
<!-- Generated by graphviz version 8.0.3 (20230416.2022)
 -->
<!-- Title: clock_topology Pages: 1 -->
<svg width="836pt" height="439pt"
 viewBox="0.00 0.00 836.37 438.68" xmlns="http://www.w3.org/2000/svg" xmlns:xlink="http://www.w3.org/1999/xlink">
<g id="graph0" class="graph" transform="scale(1 1) rotate(0) translate(7.2 431.48)">
<title>clock_topology</title>
<polygon fill="white" stroke="none" points="-7.2,7.2 -7.2,-431.48 829.17,-431.48 829.17,7.2 -7.2,7.2"/>
<!-- local_clk100 -->
<g id="node1" class="node">
<title>local_clk100</title>
<ellipse fill="#fff7d6" stroke="#5a5a5a" stroke-width="1.7" cx="57.98" cy="-396" rx="48.58" ry="28.07"/>
<text text-anchor="middle" x="57.98" y="-399.4" font-family="Helvetica,sans-Serif" font-size="12.00">Local</text>
<text text-anchor="middle" x="57.98" y="-386.4" font-family="Helvetica,sans-Serif" font-size="12.00">CLK100</text>
</g>
<!-- clock_select_mmcm -->
<g id="node4" class="node">
<title>clock_select_mmcm</title>
<path fill="#fce7d3" stroke="#5a5a5a" stroke-width="1.7" stroke-dasharray="5,2" d="M585.97,-245C585.97,-245 519.97,-245 519.97,-245 513.97,-245 507.97,-239 507.97,-233 507.97,-233 507.97,-217 507.97,-217 507.97,-211 513.97,-205 519.97,-205 519.97,-205 585.97,-205 585.97,-205 591.97,-205 597.97,-211 597.97,-217 597.97,-217 597.97,-233 597.97,-233 597.97,-239 591.97,-245 585.97,-245"/>
<text text-anchor="middle" x="552.97" y="-228.4" font-family="Helvetica,sans-Serif" font-size="12.00">Clock select</text>
<text text-anchor="middle" x="552.97" y="-215.4" font-family="Helvetica,sans-Serif" font-size="12.00">+ MMCM</text>
</g>
<!-- local_clk100&#45;&gt;clock_select_mmcm -->
<g id="edge1" class="edge">
<title>local_clk100&#45;&gt;clock_select_mmcm</title>
<path fill="none" stroke="#59a14f" stroke-width="1.9" d="M100.17,-381.71C188.9,-350.94 398.11,-278.37 497.59,-243.86"/>
<polygon fill="#59a14f" stroke="#59a14f" stroke-width="1.9" points="498.26,-246.27 505.73,-240.34 496.19,-240.32 498.26,-246.27"/>
<text text-anchor="middle" x="296.97" y="-330.6" font-family="Helvetica,sans-Serif" font-size="10.50">local reference</text>
</g>
<!-- rx0_tmg -->
<g id="node2" class="node">
<title>rx0_tmg</title>
<ellipse fill="#fff7d6" stroke="#5a5a5a" stroke-width="1.7" cx="57.98" cy="-150" rx="57.97" ry="28.07"/>
<text text-anchor="middle" x="57.98" y="-153.4" font-family="Helvetica,sans-Serif" font-size="12.00">Timing link</text>
<text text-anchor="middle" x="57.98" y="-140.4" font-family="Helvetica,sans-Serif" font-size="12.00">rx0_tmg</text>
</g>
<!-- endpoint_core -->
<g id="node3" class="node">
<title>endpoint_core</title>
<path fill="#fce7d3" stroke="#5a5a5a" stroke-width="1.7" stroke-dasharray="5,2" d="M326.97,-170C326.97,-170 266.97,-170 266.97,-170 260.97,-170 254.97,-164 254.97,-158 254.97,-158 254.97,-142 254.97,-142 254.97,-136 260.97,-130 266.97,-130 266.97,-130 326.97,-130 326.97,-130 332.97,-130 338.97,-136 338.97,-142 338.97,-142 338.97,-158 338.97,-158 338.97,-164 332.97,-170 326.97,-170"/>
<text text-anchor="middle" x="296.97" y="-153.4" font-family="Helvetica,sans-Serif" font-size="12.00">Endpoint /</text>
<text text-anchor="middle" x="296.97" y="-140.4" font-family="Helvetica,sans-Serif" font-size="12.00">PDTS core</text>
</g>
<!-- rx0_tmg&#45;&gt;endpoint_core -->
<g id="edge2" class="edge">
<title>rx0_tmg&#45;&gt;endpoint_core</title>
<path fill="none" stroke="#59a14f" stroke-width="1.9" d="M116.35,-150C155.25,-150 206.25,-150 243.96,-150"/>
<polygon fill="#59a14f" stroke="#59a14f" stroke-width="1.9" points="243.72,-153.15 252.72,-150 243.72,-146.85 243.72,-153.15"/>
<text text-anchor="middle" x="185.47" y="-153.6" font-family="Helvetica,sans-Serif" font-size="10.50">timing ingress</text>
</g>
<!-- endpoint_core&#45;&gt;clock_select_mmcm -->
<g id="edge3" class="edge">
<title>endpoint_core&#45;&gt;clock_select_mmcm</title>
<path fill="none" stroke="#59a14f" stroke-width="1.9" d="M339.34,-162.22C382.34,-174.91 449.84,-194.85 497.23,-208.84"/>
<polygon fill="#59a14f" stroke="#59a14f" stroke-width="1.9" points="496.1,-212.38 505.62,-211.91 497.88,-206.34 496.1,-212.38"/>
<text text-anchor="middle" x="423.47" y="-203.6" font-family="Helvetica,sans-Serif" font-size="10.50">recovered 62.5 MHz</text>
</g>
<!-- frontend_boundary -->
<g id="node5" class="node">
<title>frontend_boundary</title>
<path fill="#e8f4e2" stroke="#5a5a5a" stroke-width="1.7" d="M809.47,-361C809.47,-361 758.47,-361 758.47,-361 752.47,-361 746.47,-355 746.47,-349 746.47,-349 746.47,-333 746.47,-333 746.47,-327 752.47,-321 758.47,-321 758.47,-321 809.47,-321 809.47,-321 815.47,-321 821.47,-327 821.47,-333 821.47,-333 821.47,-349 821.47,-349 821.47,-355 815.47,-361 809.47,-361"/>
<text text-anchor="middle" x="783.97" y="-344.4" font-family="Helvetica,sans-Serif" font-size="12.00">Frontend</text>
<text text-anchor="middle" x="783.97" y="-331.4" font-family="Helvetica,sans-Serif" font-size="12.00">boundary</text>
</g>
<!-- endpoint_core&#45;&gt;frontend_boundary -->
<g id="edge8" class="edge">
<title>endpoint_core&#45;&gt;frontend_boundary</title>
<path fill="none" stroke="#8cd17d" stroke-width="1.7" stroke-dasharray="5,2" d="M315.59,-170.23C330.21,-186.02 352.22,-207.63 374.97,-222 479.55,-288.08 513.93,-294.07 633.97,-324 667.23,-332.3 705.7,-336.55 735.21,-338.74"/>
<polygon fill="#8cd17d" stroke="#8cd17d" stroke-width="1.7" points="734.86,-342 744.06,-339.47 735.29,-335.72 734.86,-342"/>
</g>
<!-- trigger_pipeline -->
<g id="node6" class="node">
<title>trigger_pipeline</title>
<path fill="#f8dcdd" stroke="#5a5a5a" stroke-width="1.7" d="M805.47,-168C805.47,-168 762.47,-168 762.47,-168 756.47,-168 750.47,-162 750.47,-156 750.47,-156 750.47,-140 750.47,-140 750.47,-134 756.47,-128 762.47,-128 762.47,-128 805.47,-128 805.47,-128 811.47,-128 817.47,-134 817.47,-140 817.47,-140 817.47,-156 817.47,-156 817.47,-162 811.47,-168 805.47,-168"/>
<text text-anchor="middle" x="783.97" y="-151.4" font-family="Helvetica,sans-Serif" font-size="12.00">Trigger</text>
<text text-anchor="middle" x="783.97" y="-138.4" font-family="Helvetica,sans-Serif" font-size="12.00">pipeline</text>
</g>
<!-- endpoint_core&#45;&gt;trigger_pipeline -->
<g id="edge9" class="edge">
<title>endpoint_core&#45;&gt;trigger_pipeline</title>
<path fill="none" stroke="#8cd17d" stroke-width="1.7" stroke-dasharray="5,2" d="M339.28,-133.84C414.61,-106.77 578.62,-59.01 709.97,-99 724.89,-103.54 739.53,-112.27 751.74,-121.11"/>
<polygon fill="#8cd17d" stroke="#8cd17d" stroke-width="1.7" points="749.09,-123.58 758.16,-126.51 752.9,-118.56 749.09,-123.58"/>
</g>
<!-- spy_buffer -->
<g id="node8" class="node">
<title>spy_buffer</title>
<path fill="#d9f0f0" stroke="#5a5a5a" stroke-width="1.7" d="M809.97,-36C809.97,-36 757.97,-36 757.97,-36 751.97,-36 745.97,-30 745.97,-24 745.97,-24 745.97,-12 745.97,-12 745.97,-6 751.97,0 757.97,0 757.97,0 809.97,0 809.97,0 815.97,0 821.97,-6 821.97,-12 821.97,-12 821.97,-24 821.97,-24 821.97,-30 815.97,-36 809.97,-36"/>
<text text-anchor="middle" x="783.97" y="-14.9" font-family="Helvetica,sans-Serif" font-size="12.00">Spybuffer</text>
</g>
<!-- endpoint_core&#45;&gt;spy_buffer -->
<g id="edge10" class="edge">
<title>endpoint_core&#45;&gt;spy_buffer</title>
<path fill="none" stroke="#8cd17d" stroke-width="1.7" stroke-dasharray="5,2" d="M316.52,-129.65C330.99,-115.1 352.36,-96.35 374.97,-86 496.26,-30.48 656.35,-19.73 735.07,-18.01"/>
<polygon fill="#8cd17d" stroke="#8cd17d" stroke-width="1.7" points="734.68,-21.13 743.63,-17.82 734.57,-14.83 734.68,-21.13"/>
</g>
<!-- clock_select_mmcm&#45;&gt;frontend_boundary -->
<g id="edge4" class="edge">
<title>clock_select_mmcm&#45;&gt;frontend_boundary</title>
<path fill="none" stroke="#59a14f" stroke-width="2" d="M593.81,-245.49C606.63,-252.06 620.89,-259.36 633.97,-266 668,-283.29 706.49,-302.66 735.82,-317.38"/>
<polygon fill="#59a14f" stroke="#59a14f" stroke-width="2" points="734.73,-320.36 744.19,-321.58 737.56,-314.73 734.73,-320.36"/>
<text text-anchor="middle" x="671.97" y="-306.6" font-family="Helvetica,sans-Serif" font-size="10.50">capture clocks</text>
</g>
<!-- clock_select_mmcm&#45;&gt;trigger_pipeline -->
<g id="edge5" class="edge">
<title>clock_select_mmcm&#45;&gt;trigger_pipeline</title>
<path fill="none" stroke="#59a14f" stroke-width="2" d="M598.39,-210.06C638.96,-196.42 698.61,-176.36 739.03,-162.77"/>
<polygon fill="#59a14f" stroke="#59a14f" stroke-width="2" points="740.62,-164.89 748.14,-159.04 738.61,-158.92 740.62,-164.89"/>
<text text-anchor="middle" x="671.97" y="-200.6" font-family="Helvetica,sans-Serif" font-size="10.50">trigger domain</text>
</g>
<!-- transport_subsystem -->
<g id="node7" class="node">
<title>transport_subsystem</title>
<path fill="#e9e0d8" stroke="#5a5a5a" stroke-width="1.7" d="M809.97,-274C809.97,-274 757.97,-274 757.97,-274 751.97,-274 745.97,-268 745.97,-262 745.97,-262 745.97,-246 745.97,-246 745.97,-240 751.97,-234 757.97,-234 757.97,-234 809.97,-234 809.97,-234 815.97,-234 821.97,-240 821.97,-246 821.97,-246 821.97,-262 821.97,-262 821.97,-268 815.97,-274 809.97,-274"/>
<text text-anchor="middle" x="783.97" y="-257.4" font-family="Helvetica,sans-Serif" font-size="12.00">Readout /</text>
<text text-anchor="middle" x="783.97" y="-244.4" font-family="Helvetica,sans-Serif" font-size="12.00">transport</text>
</g>
<!-- clock_select_mmcm&#45;&gt;transport_subsystem -->
<g id="edge6" class="edge">
<title>clock_select_mmcm&#45;&gt;transport_subsystem</title>
<path fill="none" stroke="#59a14f" stroke-width="2" d="M598.39,-230.63C637.25,-235.55 693.62,-242.69 733.82,-247.78"/>
<polygon fill="#59a14f" stroke="#59a14f" stroke-width="2" points="733.16,-251.25 742.48,-249.25 733.95,-245 733.16,-251.25"/>
<text text-anchor="middle" x="671.97" y="-247.6" font-family="Helvetica,sans-Serif" font-size="10.50">readout domain</text>
</g>
<!-- clock_select_mmcm&#45;&gt;spy_buffer -->
<g id="edge7" class="edge">
<title>clock_select_mmcm&#45;&gt;spy_buffer</title>
<path fill="none" stroke="#59a14f" stroke-width="2" d="M575.21,-204.78C591.24,-189.59 613.84,-168.34 633.97,-150 674.94,-112.66 723.06,-70.29 753.29,-43.85"/>
<polygon fill="#59a14f" stroke="#59a14f" stroke-width="2" points="755.37,-45.48 760.07,-37.18 751.22,-40.73 755.37,-45.48"/>
<text text-anchor="middle" x="671.97" y="-153.6" font-family="Helvetica,sans-Serif" font-size="10.50">spy domain</text>
</g>
</g>
</svg>
