<?xml version="1.0" encoding="UTF-8" standalone="no"?>
<!DOCTYPE svg PUBLIC "-//W3C//DTD SVG 1.1//EN"
 "http://www.w3.org/Graphics/SVG/1.1/DTD/svg11.dtd">
<!-- Generated by graphviz version 8.0.3 (20230416.2022)
 -->
<!-- Title: deadtime_bottleneck_cascade Pages: 1 -->
<svg width="1538pt" height="312pt"
 viewBox="0.00 0.00 1537.72 312.06" xmlns="http://www.w3.org/2000/svg" xmlns:xlink="http://www.w3.org/1999/xlink">
<g id="graph0" class="graph" transform="scale(1 1) rotate(0) translate(7.2 304.86)">
<title>deadtime_bottleneck_cascade</title>
<polygon fill="white" stroke="none" points="-7.2,7.2 -7.2,-304.86 1530.52,-304.86 1530.52,7.2 -7.2,7.2"/>
<!-- trig -->
<g id="node1" class="node">
<title>trig</title>
<path fill="#e8f4e2" stroke="#5a5a5a" stroke-width="1.7" d="M84,-85.66C84,-85.66 12,-85.66 12,-85.66 6,-85.66 0,-79.66 0,-73.66 0,-73.66 0,-57.66 0,-57.66 0,-51.66 6,-45.66 12,-45.66 12,-45.66 84,-45.66 84,-45.66 90,-45.66 96,-51.66 96,-57.66 96,-57.66 96,-73.66 96,-73.66 96,-79.66 90,-85.66 84,-85.66"/>
<text text-anchor="middle" x="48" y="-69.46" font-family="Helvetica,sans-Serif" font-size="11.50">Trigger arrival</text>
<text text-anchor="middle" x="48" y="-56.46" font-family="Helvetica,sans-Serif" font-size="11.50">per channel</text>
</g>
<!-- accept -->
<g id="node2" class="node">
<title>accept</title>
<path fill="#fbf7e7" stroke="#5a5a5a" stroke-width="1.7" d="M302,-85.66C302,-85.66 229,-85.66 229,-85.66 223,-85.66 217,-79.66 217,-73.66 217,-73.66 217,-57.66 217,-57.66 217,-51.66 223,-45.66 229,-45.66 229,-45.66 302,-45.66 302,-45.66 308,-45.66 314,-51.66 314,-57.66 314,-57.66 314,-73.66 314,-73.66 314,-79.66 308,-85.66 302,-85.66"/>
<text text-anchor="middle" x="265.5" y="-69.46" font-family="Helvetica,sans-Serif" font-size="11.50">Accept only in</text>
<text text-anchor="middle" x="265.5" y="-56.46" font-family="Helvetica,sans-Serif" font-size="11.50">wait4trig</text>
</g>
<!-- trig&#45;&gt;accept -->
<g id="edge1" class="edge">
<title>trig&#45;&gt;accept</title>
<path fill="none" stroke="#444444" stroke-width="1.7" d="M96.29,-65.66C128.63,-65.66 171.71,-65.66 206.17,-65.66"/>
<polygon fill="#444444" stroke="#444444" stroke-width="1.7" points="206.07,-68.63 214.57,-65.66 206.07,-62.68 206.07,-68.63"/>
<text text-anchor="middle" x="156.5" y="-68.66" font-family="Helvetica,sans-Serif" font-size="10.00">event_pulse</text>
</g>
<!-- builder -->
<g id="node3" class="node">
<title>builder</title>
<path fill="#f8dcdd" stroke="#5a5a5a" stroke-width="2.2" d="M581,-140.66C581,-140.66 464,-140.66 464,-140.66 458,-140.66 452,-134.66 452,-128.66 452,-128.66 452,-112.66 452,-112.66 452,-106.66 458,-100.66 464,-100.66 464,-100.66 581,-100.66 581,-100.66 587,-100.66 593,-106.66 593,-112.66 593,-112.66 593,-128.66 593,-128.66 593,-134.66 587,-140.66 581,-140.66"/>
<text text-anchor="middle" x="522.5" y="-124.46" font-family="Helvetica,sans-Serif" font-size="11.50">STC3 frame builder</text>
<text text-anchor="middle" x="522.5" y="-111.46" font-family="Helvetica,sans-Serif" font-size="11.50">serialize one full frame</text>
</g>
<!-- accept&#45;&gt;builder -->
<g id="edge2" class="edge">
<title>accept&#45;&gt;builder</title>
<path fill="none" stroke="#444444" stroke-width="1.7" d="M314.46,-76C350.05,-83.68 399.4,-94.32 440.99,-103.3"/>
<polygon fill="#444444" stroke="#444444" stroke-width="1.7" points="440.17,-106.59 449.11,-105.48 441.43,-100.78 440.17,-106.59"/>
<text text-anchor="middle" x="383" y="-101.66" font-family="Helvetica,sans-Serif" font-size="10.00">accepted trigger</text>
</g>
<!-- busy -->
<g id="node7" class="node">
<title>busy</title>
<path fill="#fff1e4" stroke="#c17d11" stroke-width="1.7" d="M1215,-39.78C1215,-39.78 1189.81,-58.36 1189.81,-58.36 1184.98,-61.92 1174.16,-65.48 1168.16,-65.48 1168.16,-65.48 1103.16,-65.48 1103.16,-65.48 1097.16,-65.48 1086.33,-61.92 1081.5,-58.36 1081.5,-58.36 1056.32,-39.78 1056.32,-39.78 1051.49,-36.22 1051.49,-29.1 1056.32,-25.54 1056.32,-25.54 1081.5,-6.96 1081.5,-6.96 1086.33,-3.4 1097.16,0.16 1103.16,0.16 1103.16,0.16 1168.16,0.16 1168.16,0.16 1174.16,0.16 1184.98,-3.4 1189.81,-6.96 1189.81,-6.96 1215,-25.54 1215,-25.54 1219.83,-29.1 1219.83,-36.22 1215,-39.78"/>
<text text-anchor="middle" x="1135.66" y="-36.46" font-family="Helvetica,sans-Serif" font-size="11.50">busy_count</text>
<text text-anchor="middle" x="1135.66" y="-23.46" font-family="Helvetica,sans-Serif" font-size="11.50"> dominant today</text>
</g>
<!-- accept&#45;&gt;busy -->
<g id="edge3" class="edge">
<title>accept&#45;&gt;busy</title>
<path fill="none" stroke="#c17d11" stroke-width="1.7" stroke-dasharray="5,2" d="M314.41,-63.84C452.92,-58.57 855.64,-43.27 1040.23,-36.25"/>
<polygon fill="#c17d11" stroke="#c17d11" stroke-width="1.7" points="1040.08,-39.16 1048.46,-35.86 1039.86,-33.21 1040.08,-39.16"/>
<text text-anchor="middle" x="661" y="-55.66" font-family="Helvetica,sans-Serif" font-size="10.00">busy reject</text>
</g>
<!-- fifo -->
<g id="node4" class="node">
<title>fifo</title>
<path fill="#edf5fd" stroke="#5a5a5a" stroke-width="1.7" d="M870,-227.66C870,-227.66 741,-227.66 741,-227.66 735,-227.66 729,-221.66 729,-215.66 729,-215.66 729,-199.66 729,-199.66 729,-193.66 735,-187.66 741,-187.66 741,-187.66 870,-187.66 870,-187.66 876,-187.66 882,-193.66 882,-199.66 882,-199.66 882,-215.66 882,-215.66 882,-221.66 876,-227.66 870,-227.66"/>
<text text-anchor="middle" x="805.5" y="-211.46" font-family="Helvetica,sans-Serif" font-size="11.50">Per&#45;channel output FIFO</text>
<text text-anchor="middle" x="805.5" y="-198.46" font-family="Helvetica,sans-Serif" font-size="11.50">XPM sync FIFO</text>
</g>
<!-- builder&#45;&gt;fifo -->
<g id="edge4" class="edge">
<title>builder&#45;&gt;fifo</title>
<path fill="none" stroke="#444444" stroke-width="1.7" d="M591.16,-141.61C632.6,-154.44 685.71,-170.88 728.57,-184.15"/>
<polygon fill="#444444" stroke="#444444" stroke-width="1.7" points="727.39,-187.52 736.39,-187.19 729.15,-181.84 727.39,-187.52"/>
<text text-anchor="middle" x="661" y="-175.66" font-family="Helvetica,sans-Serif" font-size="10.00">232&#45;word frame</text>
</g>
<!-- bnote -->
<g id="node9" class="node">
<title>bnote</title>
<polygon fill="#fff1e4" stroke="#c17d11" stroke-width="1.7" points="865.5,-147.16 739.5,-147.16 739.5,-94.16 871.5,-94.16 871.5,-141.16 865.5,-147.16"/>
<polyline fill="none" stroke="#c17d11" stroke-width="1.7" points="865.5,-147.16 865.5,-141.16"/>
<polyline fill="none" stroke="#c17d11" stroke-width="1.7" points="871.5,-141.16 865.5,-141.16"/>
<text text-anchor="middle" x="805.5" y="-130.96" font-family="Helvetica,sans-Serif" font-size="11.50">Builder occupancy</text>
<text text-anchor="middle" x="805.5" y="-117.96" font-family="Helvetica,sans-Serif" font-size="11.50">16.592 us</text>
<text text-anchor="middle" x="805.5" y="-104.96" font-family="Helvetica,sans-Serif" font-size="11.50">main dead&#45;time term</text>
</g>
<!-- builder&#45;&gt;bnote -->
<g id="edge8" class="edge">
<title>builder&#45;&gt;bnote</title>
<path fill="none" stroke="#c17d11" stroke-width="1.7" stroke-dasharray="5,2" d="M593.68,-120.66C634.74,-120.66 686.6,-120.66 728.61,-120.66"/>
<polygon fill="#c17d11" stroke="#c17d11" stroke-width="1.7" points="728.56,-123.63 737.06,-120.66 728.56,-117.68 728.56,-123.63"/>
</g>
<!-- mux -->
<g id="node5" class="node">
<title>mux</title>
<path fill="#f3f3f3" stroke="#5a5a5a" stroke-width="1.7" d="M1184.16,-257.66C1184.16,-257.66 1087.16,-257.66 1087.16,-257.66 1081.16,-257.66 1075.16,-251.66 1075.16,-245.66 1075.16,-245.66 1075.16,-229.66 1075.16,-229.66 1075.16,-223.66 1081.16,-217.66 1087.16,-217.66 1087.16,-217.66 1184.16,-217.66 1184.16,-217.66 1190.16,-217.66 1196.16,-223.66 1196.16,-229.66 1196.16,-229.66 1196.16,-245.66 1196.16,-245.66 1196.16,-251.66 1190.16,-257.66 1184.16,-257.66"/>
<text text-anchor="middle" x="1135.66" y="-241.46" font-family="Helvetica,sans-Serif" font-size="11.50">Two&#45;lane mux</text>
<text text-anchor="middle" x="1135.66" y="-228.46" font-family="Helvetica,sans-Serif" font-size="11.50">20 channels / lane</text>
</g>
<!-- fifo&#45;&gt;mux -->
<g id="edge5" class="edge">
<title>fifo&#45;&gt;mux</title>
<path fill="none" stroke="#444444" stroke-width="1.7" d="M882.2,-214.58C937.12,-219.6 1010.87,-226.34 1064.47,-231.24"/>
<polygon fill="#444444" stroke="#444444" stroke-width="1.7" points="1064.18,-234.39 1072.91,-232.2 1064.72,-228.46 1064.18,-234.39"/>
<text text-anchor="middle" x="948" y="-225.66" font-family="Helvetica,sans-Serif" font-size="10.00">ready / drain</text>
</g>
<!-- full -->
<g id="node8" class="node">
<title>full</title>
<path fill="#fff1e4" stroke="#c17d11" stroke-width="1.7" d="M1246.91,-150.35C1246.91,-150.35 1207.13,-171.79 1207.13,-171.79 1201.85,-174.63 1190.57,-177.48 1184.57,-177.48 1184.57,-177.48 1086.75,-177.48 1086.75,-177.48 1080.75,-177.48 1069.47,-174.63 1064.19,-171.79 1064.19,-171.79 1024.41,-150.35 1024.41,-150.35 1019.12,-147.51 1019.12,-141.81 1024.41,-138.97 1024.41,-138.97 1064.19,-117.53 1064.19,-117.53 1069.47,-114.69 1080.75,-111.84 1086.75,-111.84 1086.75,-111.84 1184.57,-111.84 1184.57,-111.84 1190.57,-111.84 1201.85,-114.69 1207.13,-117.53 1207.13,-117.53 1246.91,-138.97 1246.91,-138.97 1252.19,-141.81 1252.19,-147.51 1246.91,-150.35"/>
<text text-anchor="middle" x="1135.66" y="-148.46" font-family="Helvetica,sans-Serif" font-size="11.50">full_count</text>
<text text-anchor="middle" x="1135.66" y="-135.46" font-family="Helvetica,sans-Serif" font-size="11.50"> transport backpressure</text>
</g>
<!-- fifo&#45;&gt;full -->
<g id="edge6" class="edge">
<title>fifo&#45;&gt;full</title>
<path fill="none" stroke="#c17d11" stroke-width="1.7" stroke-dasharray="5,2" d="M882.2,-193.13C927.62,-184.41 985.92,-173.21 1035.05,-163.78"/>
<polygon fill="#c17d11" stroke="#c17d11" stroke-width="1.7" points="1035.28,-166.38 1043.07,-161.86 1034.16,-160.54 1035.28,-166.38"/>
<text text-anchor="middle" x="948" y="-188.66" font-family="Helvetica,sans-Serif" font-size="10.00">prog_full reject</text>
</g>
<!-- tx -->
<g id="node6" class="node">
<title>tx</title>
<path fill="#f3f3f3" stroke="#5a5a5a" stroke-width="1.7" d="M1496.32,-297.66C1496.32,-297.66 1405.32,-297.66 1405.32,-297.66 1399.32,-297.66 1393.32,-291.66 1393.32,-285.66 1393.32,-285.66 1393.32,-273.66 1393.32,-273.66 1393.32,-267.66 1399.32,-261.66 1405.32,-261.66 1405.32,-261.66 1496.32,-261.66 1496.32,-261.66 1502.32,-261.66 1508.32,-267.66 1508.32,-273.66 1508.32,-273.66 1508.32,-285.66 1508.32,-285.66 1508.32,-291.66 1502.32,-297.66 1496.32,-297.66"/>
<text text-anchor="middle" x="1450.82" y="-276.96" font-family="Helvetica,sans-Serif" font-size="11.50">Hermes transport</text>
</g>
<!-- mux&#45;&gt;tx -->
<g id="edge7" class="edge">
<title>mux&#45;&gt;tx</title>
<path fill="none" stroke="#444444" stroke-width="1.7" d="M1196.3,-245.66C1249.59,-252.81 1327.58,-263.27 1382.97,-270.69"/>
<polygon fill="#444444" stroke="#444444" stroke-width="1.7" points="1382.22,-273.86 1391.04,-272.04 1383.01,-267.97 1382.22,-273.86"/>
<text text-anchor="middle" x="1317.82" y="-267.66" font-family="Helvetica,sans-Serif" font-size="10.00">lane service</text>
</g>
<!-- mnote -->
<g id="node10" class="node">
<title>mnote</title>
<polygon fill="#fff1e4" stroke="#c17d11" stroke-width="1.7" points="1517.32,-221.16 1378.32,-221.16 1378.32,-168.16 1523.32,-168.16 1523.32,-215.16 1517.32,-221.16"/>
<polyline fill="none" stroke="#c17d11" stroke-width="1.7" points="1517.32,-221.16 1517.32,-215.16"/>
<polyline fill="none" stroke="#c17d11" stroke-width="1.7" points="1523.32,-215.16 1517.32,-215.16"/>
<text text-anchor="middle" x="1450.82" y="-204.96" font-family="Helvetica,sans-Serif" font-size="11.50">Nominal lane ceiling</text>
<text text-anchor="middle" x="1450.82" y="-191.96" font-family="Helvetica,sans-Serif" font-size="11.50">13.4 kHz/channel</text>
<text text-anchor="middle" x="1450.82" y="-178.96" font-family="Helvetica,sans-Serif" font-size="11.50">second&#45;order limit here</text>
</g>
<!-- mux&#45;&gt;mnote -->
<g id="edge9" class="edge">
<title>mux&#45;&gt;mnote</title>
<path fill="none" stroke="#c17d11" stroke-width="1.7" stroke-dasharray="5,2" d="M1196.3,-229.47C1244.9,-222.8 1314.03,-213.3 1367.84,-205.92"/>
<polygon fill="#c17d11" stroke="#c17d11" stroke-width="1.7" points="1368.02,-208.62 1376.04,-204.52 1367.21,-202.72 1368.02,-208.62"/>
</g>
</g>
</svg>
