<?xml version="1.0" encoding="UTF-8" standalone="no"?>
<!DOCTYPE svg PUBLIC "-//W3C//DTD SVG 1.1//EN"
 "http://www.w3.org/Graphics/SVG/1.1/DTD/svg11.dtd">
<!-- Generated by graphviz version 8.0.3 (20230416.2022)
 -->
<!-- Title: descriptor_identity Pages: 1 -->
<svg width="1775pt" height="268pt"
 viewBox="0.00 0.00 1774.98 268.06" xmlns="http://www.w3.org/2000/svg" xmlns:xlink="http://www.w3.org/1999/xlink">
<g id="graph0" class="graph" transform="scale(1 1) rotate(0) translate(7.2 260.86)">
<title>descriptor_identity</title>
<polygon fill="white" stroke="none" points="-7.2,7.2 -7.2,-260.86 1767.78,-260.86 1767.78,7.2 -7.2,7.2"/>
<!-- frontend_boundary -->
<g id="node1" class="node">
<title>frontend_boundary</title>
<path fill="#e8f4e2" stroke="#5a5a5a" stroke-width="1.7" d="M109,-253.66C109,-253.66 12,-253.66 12,-253.66 6,-253.66 0,-247.66 0,-241.66 0,-241.66 0,-225.66 0,-225.66 0,-219.66 6,-213.66 12,-213.66 12,-213.66 109,-213.66 109,-213.66 115,-213.66 121,-219.66 121,-225.66 121,-225.66 121,-241.66 121,-241.66 121,-247.66 115,-253.66 109,-253.66"/>
<text text-anchor="middle" x="60.5" y="-237.06" font-family="Helvetica,sans-Serif" font-size="12.00">Aligned waveform</text>
<text text-anchor="middle" x="60.5" y="-224.06" font-family="Helvetica,sans-Serif" font-size="12.00">per channel</text>
</g>
<!-- xc_filter -->
<g id="node2" class="node">
<title>xc_filter</title>
<path fill="#f8dcdd" stroke="#5a5a5a" stroke-width="1.7" stroke-dasharray="5,2" d="M408.5,-251.66C408.5,-251.66 331.5,-251.66 331.5,-251.66 325.5,-251.66 319.5,-245.66 319.5,-239.66 319.5,-239.66 319.5,-227.66 319.5,-227.66 319.5,-221.66 325.5,-215.66 331.5,-215.66 331.5,-215.66 408.5,-215.66 408.5,-215.66 414.5,-215.66 420.5,-221.66 420.5,-227.66 420.5,-227.66 420.5,-239.66 420.5,-239.66 420.5,-245.66 414.5,-251.66 408.5,-251.66"/>
<text text-anchor="middle" x="370" y="-230.56" font-family="Helvetica,sans-Serif" font-size="12.00">XC self&#45;trigger</text>
</g>
<!-- frontend_boundary&#45;&gt;xc_filter -->
<g id="edge1" class="edge">
<title>frontend_boundary&#45;&gt;xc_filter</title>
<path fill="none" stroke="#444444" stroke-width="1.9" d="M121.15,-233.66C175.07,-233.66 254.08,-233.66 308.32,-233.66"/>
<polygon fill="#444444" stroke="#444444" stroke-width="1.9" points="308.16,-236.81 317.16,-233.66 308.16,-230.51 308.16,-236.81"/>
<text text-anchor="middle" x="206" y="-237.26" font-family="Helvetica,sans-Serif" font-size="10.50">aligned sample words</text>
</g>
<!-- peak_descriptors -->
<g id="node3" class="node">
<title>peak_descriptors</title>
<path fill="#f8dcdd" stroke="#5a5a5a" stroke-width="1.7" d="M732,-198.66C732,-198.66 648,-198.66 648,-198.66 642,-198.66 636,-192.66 636,-186.66 636,-186.66 636,-170.66 636,-170.66 636,-164.66 642,-158.66 648,-158.66 648,-158.66 732,-158.66 732,-158.66 738,-158.66 744,-164.66 744,-170.66 744,-170.66 744,-186.66 744,-186.66 744,-192.66 738,-198.66 732,-198.66"/>
<text text-anchor="middle" x="690" y="-182.06" font-family="Helvetica,sans-Serif" font-size="12.00">Peak descriptor</text>
<text text-anchor="middle" x="690" y="-169.06" font-family="Helvetica,sans-Serif" font-size="12.00">calculator</text>
</g>
<!-- xc_filter&#45;&gt;peak_descriptors -->
<g id="edge2" class="edge">
<title>xc_filter&#45;&gt;peak_descriptors</title>
<path fill="none" stroke="#444444" stroke-width="1.9" d="M420.69,-225.07C475.81,-215.53 564.9,-200.12 625.16,-189.7"/>
<polygon fill="#444444" stroke="#444444" stroke-width="1.9" points="625.35,-192.52 633.68,-187.88 624.28,-186.31 625.35,-192.52"/>
<text text-anchor="middle" x="542.5" y="-217.26" font-family="Helvetica,sans-Serif" font-size="10.50">pulse&#45;domain candidate</text>
</g>
<!-- descriptor_sample_start -->
<g id="node4" class="node">
<title>descriptor_sample_start</title>
<path fill="#f7f1d8" stroke="#5a5a5a" stroke-width="1.8" d="M1351.79,-230.7C1351.79,-230.7 1334.59,-240.71 1334.59,-240.71 1329.41,-243.73 1318.23,-246.75 1312.23,-246.75 1312.23,-246.75 1260.36,-246.75 1260.36,-246.75 1254.36,-246.75 1243.17,-243.73 1237.99,-240.71 1237.99,-240.71 1220.79,-230.7 1220.79,-230.7 1215.61,-227.68 1215.61,-221.64 1220.79,-218.62 1220.79,-218.62 1237.99,-208.61 1237.99,-208.61 1243.17,-205.59 1254.36,-202.57 1260.36,-202.57 1260.36,-202.57 1312.23,-202.57 1312.23,-202.57 1318.23,-202.57 1329.41,-205.59 1334.59,-208.61 1334.59,-208.61 1351.79,-218.62 1351.79,-218.62 1356.97,-221.64 1356.97,-227.68 1351.79,-230.7"/>
<text text-anchor="middle" x="1286.29" y="-221.56" font-family="Helvetica,sans-Serif" font-size="12.00">sample_start</text>
</g>
<!-- peak_descriptors&#45;&gt;descriptor_sample_start -->
<g id="edge4" class="edge">
<title>peak_descriptors&#45;&gt;descriptor_sample_start</title>
<path fill="none" stroke="#444444" stroke-width="1.9" d="M744.26,-182.78C849.63,-190.94 1085.07,-209.16 1207.69,-218.65"/>
<polygon fill="#444444" stroke="#444444" stroke-width="1.9" points="1207.26,-221.93 1216.48,-219.49 1207.75,-215.65 1207.26,-221.93"/>
<text text-anchor="middle" x="932.5" y="-204.26" font-family="Helvetica,sans-Serif" font-size="10.50">descriptor offset</text>
</g>
<!-- stc3_builder -->
<g id="node5" class="node">
<title>stc3_builder</title>
<path fill="#f8dcdd" stroke="#5a5a5a" stroke-width="1.7" d="M967,-152.66C967,-152.66 898,-152.66 898,-152.66 892,-152.66 886,-146.66 886,-140.66 886,-140.66 886,-124.66 886,-124.66 886,-118.66 892,-112.66 898,-112.66 898,-112.66 967,-112.66 967,-112.66 973,-112.66 979,-118.66 979,-124.66 979,-124.66 979,-140.66 979,-140.66 979,-146.66 973,-152.66 967,-152.66"/>
<text text-anchor="middle" x="932.5" y="-136.06" font-family="Helvetica,sans-Serif" font-size="12.00">STC3 record</text>
<text text-anchor="middle" x="932.5" y="-123.06" font-family="Helvetica,sans-Serif" font-size="12.00">builder</text>
</g>
<!-- peak_descriptors&#45;&gt;stc3_builder -->
<g id="edge3" class="edge">
<title>peak_descriptors&#45;&gt;stc3_builder</title>
<path fill="none" stroke="#444444" stroke-width="1.9" d="M744.37,-168.45C783.08,-161.05 835.34,-151.05 874.8,-143.51"/>
<polygon fill="#444444" stroke="#444444" stroke-width="1.9" points="875.32,-146.23 883.56,-141.45 874.13,-140.04 875.32,-146.23"/>
<text text-anchor="middle" x="815" y="-164.26" font-family="Helvetica,sans-Serif" font-size="10.50">descriptor fields</text>
</g>
<!-- descriptor_identity_key -->
<g id="node8" class="node">
<title>descriptor_identity_key</title>
<path fill="#f6f6f6" stroke="#5a5a5a" stroke-width="2" d="M1748.58,-160.16C1748.58,-160.16 1571.58,-160.16 1571.58,-160.16 1565.58,-160.16 1559.58,-154.16 1559.58,-148.16 1559.58,-148.16 1559.58,-119.16 1559.58,-119.16 1559.58,-113.16 1565.58,-107.16 1571.58,-107.16 1571.58,-107.16 1748.58,-107.16 1748.58,-107.16 1754.58,-107.16 1760.58,-113.16 1760.58,-119.16 1760.58,-119.16 1760.58,-148.16 1760.58,-148.16 1760.58,-154.16 1754.58,-160.16 1748.58,-160.16"/>
<text text-anchor="middle" x="1660.08" y="-143.56" font-family="Helvetica,sans-Serif" font-size="12.00">Descriptor key</text>
<text text-anchor="middle" x="1660.08" y="-130.56" font-family="Helvetica,sans-Serif" font-size="12.00">(geoID, channel_id,</text>
<text text-anchor="middle" x="1660.08" y="-117.56" font-family="Helvetica,sans-Serif" font-size="12.00">frame_timestamp + sample_start)</text>
</g>
<!-- descriptor_sample_start&#45;&gt;descriptor_identity_key -->
<g id="edge7" class="edge">
<title>descriptor_sample_start&#45;&gt;descriptor_identity_key</title>
<path fill="none" stroke="#444444" stroke-width="1.9" d="M1340.56,-211.62C1394.51,-198.42 1479.57,-177.6 1548.22,-160.8"/>
<polygon fill="#444444" stroke="#444444" stroke-width="1.9" points="1548.66,-163.44 1556.65,-158.24 1547.16,-157.32 1548.66,-163.44"/>
<text text-anchor="middle" x="1484.58" y="-187.26" font-family="Helvetica,sans-Serif" font-size="10.50">sample_start</text>
</g>
<!-- descriptor_frame_timestamp -->
<g id="node6" class="node">
<title>descriptor_frame_timestamp</title>
<path fill="#f7f1d8" stroke="#5a5a5a" stroke-width="1.8" d="M1398.78,-139.31C1398.78,-139.31 1358.42,-160.83 1358.42,-160.83 1353.13,-163.66 1341.83,-166.48 1335.83,-166.48 1335.83,-166.48 1236.75,-166.48 1236.75,-166.48 1230.75,-166.48 1219.46,-163.66 1214.16,-160.83 1214.16,-160.83 1173.8,-139.31 1173.8,-139.31 1168.5,-136.48 1168.5,-130.84 1173.8,-128.01 1173.8,-128.01 1214.16,-106.49 1214.16,-106.49 1219.46,-103.66 1230.75,-100.84 1236.75,-100.84 1236.75,-100.84 1335.83,-100.84 1335.83,-100.84 1341.83,-100.84 1353.13,-103.66 1358.42,-106.49 1358.42,-106.49 1398.78,-128.01 1398.78,-128.01 1404.08,-130.84 1404.08,-136.48 1398.78,-139.31"/>
<text text-anchor="middle" x="1286.29" y="-137.06" font-family="Helvetica,sans-Serif" font-size="12.00">frame_timestamp</text>
<text text-anchor="middle" x="1286.29" y="-124.06" font-family="Helvetica,sans-Serif" font-size="12.00">(trigger_timestamp &#45; 64)</text>
</g>
<!-- stc3_builder&#45;&gt;descriptor_frame_timestamp -->
<g id="edge5" class="edge">
<title>stc3_builder&#45;&gt;descriptor_frame_timestamp</title>
<path fill="none" stroke="#444444" stroke-width="1.9" d="M979.49,-132.79C1023.24,-132.91 1091.21,-133.11 1151.97,-133.28"/>
<polygon fill="#444444" stroke="#444444" stroke-width="1.9" points="1151.82,-136.44 1160.83,-133.31 1151.84,-130.14 1151.82,-136.44"/>
<text text-anchor="middle" x="1071" y="-136.26" font-family="Helvetica,sans-Serif" font-size="10.50">frame header timestamp</text>
</g>
<!-- descriptor_frame_timestamp&#45;&gt;descriptor_identity_key -->
<g id="edge8" class="edge">
<title>descriptor_frame_timestamp&#45;&gt;descriptor_identity_key</title>
<path fill="none" stroke="#444444" stroke-width="1.9" d="M1410.32,-133.66C1454.76,-133.66 1504.64,-133.66 1548,-133.66"/>
<polygon fill="#444444" stroke="#444444" stroke-width="1.9" points="1547.87,-136.81 1556.87,-133.66 1547.87,-130.51 1547.87,-136.81"/>
<text text-anchor="middle" x="1484.58" y="-137.26" font-family="Helvetica,sans-Serif" font-size="10.50">frame_timestamp</text>
</g>
<!-- descriptor_channel_identity -->
<g id="node7" class="node">
<title>descriptor_channel_identity</title>
<path fill="#dcebfa" stroke="#5a5a5a" stroke-width="1.7" d="M1346.29,-40.95C1346.29,-40.95 1329.3,-57.19 1329.3,-57.19 1324.96,-61.33 1314.63,-65.48 1308.63,-65.48 1308.63,-65.48 1263.96,-65.48 1263.96,-65.48 1257.96,-65.48 1247.62,-61.33 1243.28,-57.19 1243.28,-57.19 1226.29,-40.95 1226.29,-40.95 1221.96,-36.81 1221.96,-28.51 1226.29,-24.37 1226.29,-24.37 1243.28,-8.13 1243.28,-8.13 1247.62,-3.99 1257.96,0.16 1263.96,0.16 1263.96,0.16 1308.63,0.16 1308.63,0.16 1314.63,0.16 1324.96,-3.99 1329.3,-8.13 1329.3,-8.13 1346.29,-24.37 1346.29,-24.37 1350.63,-28.51 1350.63,-36.81 1346.29,-40.95"/>
<text text-anchor="middle" x="1286.29" y="-36.06" font-family="Helvetica,sans-Serif" font-size="12.00">geoID +</text>
<text text-anchor="middle" x="1286.29" y="-23.06" font-family="Helvetica,sans-Serif" font-size="12.00">channel_id</text>
</g>
<!-- descriptor_channel_identity&#45;&gt;descriptor_identity_key -->
<g id="edge6" class="edge">
<title>descriptor_channel_identity&#45;&gt;descriptor_identity_key</title>
<path fill="none" stroke="#4e79a7" stroke-width="1.8" stroke-dasharray="5,2" d="M1340.16,-47.02C1394.13,-61.68 1479.5,-84.88 1548.34,-103.58"/>
<polygon fill="#4e79a7" stroke="#4e79a7" stroke-width="1.8" points="1547.29,-107.1 1556.81,-106.42 1548.95,-101.02 1547.29,-107.1"/>
<text text-anchor="middle" x="1484.58" y="-98.26" font-family="Helvetica,sans-Serif" font-size="10.50">DAQ scope</text>
</g>
<!-- descriptor_handoff_fix -->
<g id="node9" class="node">
<title>descriptor_handoff_fix</title>
<polygon fill="#fff1e4" stroke="#c17d11" stroke-width="1.7" points="443,-179.16 291,-179.16 291,-126.16 449,-126.16 449,-173.16 443,-179.16"/>
<polyline fill="none" stroke="#c17d11" stroke-width="1.7" points="443,-179.16 443,-173.16"/>
<polyline fill="none" stroke="#c17d11" stroke-width="1.7" points="449,-173.16 443,-173.16"/>
<text text-anchor="middle" x="370" y="-162.56" font-family="Helvetica,sans-Serif" font-size="12.00">Fixed Time_Start handoff</text>
<text text-anchor="middle" x="370" y="-149.56" font-family="Helvetica,sans-Serif" font-size="12.00">commit current descriptor</text>
<text text-anchor="middle" x="370" y="-136.56" font-family="Helvetica,sans-Serif" font-size="12.00">before next trigger</text>
</g>
<!-- descriptor_handoff_fix&#45;&gt;peak_descriptors -->
<g id="edge9" class="edge">
<title>descriptor_handoff_fix&#45;&gt;peak_descriptors</title>
<path fill="none" stroke="#8cd17d" stroke-width="1.7" stroke-dasharray="5,2" d="M449.34,-153.29C494.41,-154.34 552.03,-156.85 603,-162.66 610.1,-163.47 617.49,-164.52 624.83,-165.7"/>
<polygon fill="#8cd17d" stroke="#8cd17d" stroke-width="1.7" points="624.1,-169.11 633.5,-167.5 625.15,-162.9 624.1,-169.11"/>
<text text-anchor="middle" x="542.5" y="-166.26" font-family="Helvetica,sans-Serif" font-size="10.50">same&#45;cycle commit order</text>
</g>
</g>
</svg>
