<?xml version="1.0" encoding="UTF-8" standalone="no"?>
<!DOCTYPE svg PUBLIC "-//W3C//DTD SVG 1.1//EN"
 "http://www.w3.org/Graphics/SVG/1.1/DTD/svg11.dtd">
<!-- Generated by graphviz version 8.0.3 (20230416.2022)
 -->
<!-- Title: readiness_contracts Pages: 1 -->
<svg width="1154pt" height="212pt"
 viewBox="0.00 0.00 1154.13 212.49" xmlns="http://www.w3.org/2000/svg" xmlns:xlink="http://www.w3.org/1999/xlink">
<g id="graph0" class="graph" transform="scale(1 1) rotate(0) translate(7.2 205.29)">
<title>readiness_contracts</title>
<polygon fill="white" stroke="none" points="-7.2,7.2 -7.2,-205.29 1146.93,-205.29 1146.93,7.2 -7.2,7.2"/>
<!-- control_plane -->
<g id="node1" class="node">
<title>control_plane</title>
<path fill="#dcebfa" stroke="#5a5a5a" stroke-width="1.7" d="M52,-157.05C52,-157.05 12,-157.05 12,-157.05 6,-157.05 0,-151.05 0,-145.05 0,-145.05 0,-129.05 0,-129.05 0,-123.05 6,-117.05 12,-117.05 12,-117.05 52,-117.05 52,-117.05 58,-117.05 64,-123.05 64,-129.05 64,-129.05 64,-145.05 64,-145.05 64,-151.05 58,-157.05 52,-157.05"/>
<text text-anchor="middle" x="32" y="-140.45" font-family="Helvetica,sans-Serif" font-size="12.00">Control</text>
<text text-anchor="middle" x="32" y="-127.45" font-family="Helvetica,sans-Serif" font-size="12.00">plane</text>
</g>
<!-- analog_control -->
<g id="node2" class="node">
<title>analog_control</title>
<path fill="#dff0df" stroke="#5a5a5a" stroke-width="1.7" d="M289.5,-121.05C289.5,-121.05 250.5,-121.05 250.5,-121.05 244.5,-121.05 238.5,-115.05 238.5,-109.05 238.5,-109.05 238.5,-93.05 238.5,-93.05 238.5,-87.05 244.5,-81.05 250.5,-81.05 250.5,-81.05 289.5,-81.05 289.5,-81.05 295.5,-81.05 301.5,-87.05 301.5,-93.05 301.5,-93.05 301.5,-109.05 301.5,-109.05 301.5,-115.05 295.5,-121.05 289.5,-121.05"/>
<text text-anchor="middle" x="270" y="-104.45" font-family="Helvetica,sans-Serif" font-size="12.00">Analog</text>
<text text-anchor="middle" x="270" y="-91.45" font-family="Helvetica,sans-Serif" font-size="12.00">control</text>
</g>
<!-- control_plane&#45;&gt;analog_control -->
<g id="edge1" class="edge">
<title>control_plane&#45;&gt;analog_control</title>
<path fill="none" stroke="#4e79a7" stroke-width="1.8" stroke-dasharray="5,2" d="M64.31,-124.72C74.86,-121.04 86.8,-117.36 98,-115.05 141.56,-106.03 192.49,-102.77 227.37,-101.62"/>
<polygon fill="#4e79a7" stroke="#4e79a7" stroke-width="1.8" points="227.19,-104.72 236.1,-101.31 227.01,-98.42 227.19,-104.72"/>
<text text-anchor="middle" x="146.5" y="-118.65" font-family="Helvetica,sans-Serif" font-size="10.50">AFE/DAC setup</text>
</g>
<!-- timing_subsystem -->
<g id="node3" class="node">
<title>timing_subsystem</title>
<path fill="#fce7d3" stroke="#5a5a5a" stroke-width="1.7" d="M299,-193.05C299,-193.05 241,-193.05 241,-193.05 235,-193.05 229,-187.05 229,-181.05 229,-181.05 229,-165.05 229,-165.05 229,-159.05 235,-153.05 241,-153.05 241,-153.05 299,-153.05 299,-153.05 305,-153.05 311,-159.05 311,-165.05 311,-165.05 311,-181.05 311,-181.05 311,-187.05 305,-193.05 299,-193.05"/>
<text text-anchor="middle" x="270" y="-176.45" font-family="Helvetica,sans-Serif" font-size="12.00">Timing</text>
<text text-anchor="middle" x="270" y="-163.45" font-family="Helvetica,sans-Serif" font-size="12.00">subsystem</text>
</g>
<!-- control_plane&#45;&gt;timing_subsystem -->
<g id="edge2" class="edge">
<title>control_plane&#45;&gt;timing_subsystem</title>
<path fill="none" stroke="#4e79a7" stroke-width="1.8" stroke-dasharray="5,2" d="M64.34,-141.83C103.57,-147.81 171.3,-158.14 218.03,-165.27"/>
<polygon fill="#4e79a7" stroke="#4e79a7" stroke-width="1.8" points="217.47,-168.68 226.84,-166.92 218.42,-162.45 217.47,-168.68"/>
<text text-anchor="middle" x="146.5" y="-164.65" font-family="Helvetica,sans-Serif" font-size="10.50">clock source / status</text>
</g>
<!-- config_ready -->
<g id="node5" class="node">
<title>config_ready</title>
<path fill="#f7f1d8" stroke="#5a5a5a" stroke-width="1.8" d="M637.19,-106.05C637.19,-106.05 619.72,-116.13 619.72,-116.13 614.53,-119.14 603.33,-122.14 597.33,-122.14 597.33,-122.14 544.83,-122.14 544.83,-122.14 538.83,-122.14 527.63,-119.14 522.44,-116.13 522.44,-116.13 504.97,-106.05 504.97,-106.05 499.77,-103.05 499.77,-97.04 504.97,-94.04 504.97,-94.04 522.44,-83.96 522.44,-83.96 527.63,-80.96 538.83,-77.95 544.83,-77.95 544.83,-77.95 597.33,-77.95 597.33,-77.95 603.33,-77.95 614.53,-80.96 619.72,-83.96 619.72,-83.96 637.19,-94.04 637.19,-94.04 642.39,-97.04 642.39,-103.05 637.19,-106.05"/>
<text text-anchor="middle" x="571.08" y="-96.95" font-family="Helvetica,sans-Serif" font-size="12.00">config_ready</text>
</g>
<!-- analog_control&#45;&gt;config_ready -->
<g id="edge3" class="edge">
<title>analog_control&#45;&gt;config_ready</title>
<path fill="none" stroke="#b6992d" stroke-width="1.8" stroke-dasharray="5,2" d="M301.88,-100.94C344.33,-100.8 422.38,-100.54 483.38,-100.34"/>
<polygon fill="#b6992d" stroke="#b6992d" stroke-width="1.8" points="483.18,-103.48 492.17,-100.3 483.16,-97.18 483.18,-103.48"/>
<text text-anchor="middle" x="394.5" y="-103.65" font-family="Helvetica,sans-Serif" font-size="10.50">AFE/DAC configured</text>
</g>
<!-- timing_ready -->
<g id="node6" class="node">
<title>timing_ready</title>
<path fill="#f7f1d8" stroke="#5a5a5a" stroke-width="1.8" d="M637.19,-182.05C637.19,-182.05 619.72,-192.13 619.72,-192.13 614.53,-195.14 603.33,-198.14 597.33,-198.14 597.33,-198.14 544.83,-198.14 544.83,-198.14 538.83,-198.14 527.63,-195.14 522.44,-192.13 522.44,-192.13 504.97,-182.05 504.97,-182.05 499.77,-179.05 499.77,-173.04 504.97,-170.04 504.97,-170.04 522.44,-159.96 522.44,-159.96 527.63,-156.96 538.83,-153.95 544.83,-153.95 544.83,-153.95 597.33,-153.95 597.33,-153.95 603.33,-153.95 614.53,-156.96 619.72,-159.96 619.72,-159.96 637.19,-170.04 637.19,-170.04 642.39,-173.04 642.39,-179.05 637.19,-182.05"/>
<text text-anchor="middle" x="571.08" y="-172.95" font-family="Helvetica,sans-Serif" font-size="12.00">timing_ready</text>
</g>
<!-- timing_subsystem&#45;&gt;timing_ready -->
<g id="edge4" class="edge">
<title>timing_subsystem&#45;&gt;timing_ready</title>
<path fill="none" stroke="#b6992d" stroke-width="1.8" stroke-dasharray="5,2" d="M311.34,-173.45C355.45,-173.89 427.44,-174.61 484.3,-175.18"/>
<polygon fill="#b6992d" stroke="#b6992d" stroke-width="1.8" points="484.06,-178.35 493.09,-175.29 484.13,-172.05 484.06,-178.35"/>
<text text-anchor="middle" x="394.5" y="-177.65" font-family="Helvetica,sans-Serif" font-size="10.50">trusted timing</text>
</g>
<!-- frontend_boundary -->
<g id="node4" class="node">
<title>frontend_boundary</title>
<path fill="#e8f4e2" stroke="#5a5a5a" stroke-width="1.7" d="M295.5,-42.05C295.5,-42.05 244.5,-42.05 244.5,-42.05 238.5,-42.05 232.5,-36.05 232.5,-30.05 232.5,-30.05 232.5,-14.05 232.5,-14.05 232.5,-8.05 238.5,-2.05 244.5,-2.05 244.5,-2.05 295.5,-2.05 295.5,-2.05 301.5,-2.05 307.5,-8.05 307.5,-14.05 307.5,-14.05 307.5,-30.05 307.5,-30.05 307.5,-36.05 301.5,-42.05 295.5,-42.05"/>
<text text-anchor="middle" x="270" y="-25.45" font-family="Helvetica,sans-Serif" font-size="12.00">Frontend</text>
<text text-anchor="middle" x="270" y="-12.45" font-family="Helvetica,sans-Serif" font-size="12.00">boundary</text>
</g>
<!-- alignment_ready -->
<g id="node7" class="node">
<title>alignment_ready</title>
<path fill="#f7f1d8" stroke="#5a5a5a" stroke-width="1.8" d="M653.4,-27.19C653.4,-27.19 628.5,-38.99 628.5,-38.99 623.08,-41.57 611.66,-44.14 605.66,-44.14 605.66,-44.14 536.5,-44.14 536.5,-44.14 530.5,-44.14 519.08,-41.57 513.66,-38.99 513.66,-38.99 488.76,-27.19 488.76,-27.19 483.34,-24.62 483.34,-19.47 488.76,-16.9 488.76,-16.9 513.66,-5.1 513.66,-5.1 519.08,-2.53 530.5,0.05 536.5,0.05 536.5,0.05 605.66,0.05 605.66,0.05 611.66,0.05 623.08,-2.53 628.5,-5.1 628.5,-5.1 653.4,-16.9 653.4,-16.9 658.82,-19.47 658.82,-24.62 653.4,-27.19"/>
<text text-anchor="middle" x="571.08" y="-18.95" font-family="Helvetica,sans-Serif" font-size="12.00">alignment_ready</text>
</g>
<!-- frontend_boundary&#45;&gt;alignment_ready -->
<g id="edge5" class="edge">
<title>frontend_boundary&#45;&gt;alignment_ready</title>
<path fill="none" stroke="#b6992d" stroke-width="1.8" stroke-dasharray="5,2" d="M307.97,-22.05C347.24,-22.05 411.09,-22.05 465.93,-22.05"/>
<polygon fill="#b6992d" stroke="#b6992d" stroke-width="1.8" points="465.77,-25.2 474.77,-22.05 465.77,-18.9 465.77,-25.2"/>
<text text-anchor="middle" x="394.5" y="-25.65" font-family="Helvetica,sans-Serif" font-size="10.50">alignment valid</text>
</g>
<!-- trigger_enable -->
<g id="node8" class="node">
<title>trigger_enable</title>
<path fill="#f7f1d8" stroke="#5a5a5a" stroke-width="1.8" d="M888.92,-46.68C888.92,-46.68 868.57,-57.5 868.57,-57.5 863.27,-60.32 851.98,-63.14 845.98,-63.14 845.98,-63.14 786.91,-63.14 786.91,-63.14 780.91,-63.14 769.61,-60.32 764.32,-57.5 764.32,-57.5 743.97,-46.68 743.97,-46.68 738.68,-43.86 738.68,-38.23 743.97,-35.41 743.97,-35.41 764.32,-24.59 764.32,-24.59 769.61,-21.77 780.91,-18.95 786.91,-18.95 786.91,-18.95 845.98,-18.95 845.98,-18.95 851.98,-18.95 863.27,-21.77 868.57,-24.59 868.57,-24.59 888.92,-35.41 888.92,-35.41 894.21,-38.23 894.21,-43.86 888.92,-46.68"/>
<text text-anchor="middle" x="816.44" y="-37.95" font-family="Helvetica,sans-Serif" font-size="12.00">trigger_enable</text>
</g>
<!-- config_ready&#45;&gt;trigger_enable -->
<g id="edge6" class="edge">
<title>config_ready&#45;&gt;trigger_enable</title>
<path fill="none" stroke="#b07aa1" stroke-width="1.8" stroke-dasharray="5,2" d="M625.79,-87.02C661.74,-78.31 709.35,-66.77 747.88,-57.43"/>
<polygon fill="#b07aa1" stroke="#b07aa1" stroke-width="1.8" points="748.48,-60.04 756.48,-54.85 746.99,-53.91 748.48,-60.04"/>
</g>
<!-- spy_enable -->
<g id="node9" class="node">
<title>spy_enable</title>
<path fill="#f7f1d8" stroke="#5a5a5a" stroke-width="1.8" d="M877.32,-125.38C877.32,-125.38 862.17,-134.8 862.17,-134.8 857.07,-137.97 845.98,-141.14 839.98,-141.14 839.98,-141.14 792.91,-141.14 792.91,-141.14 786.91,-141.14 775.81,-137.97 770.72,-134.8 770.72,-134.8 755.56,-125.38 755.56,-125.38 750.47,-122.21 750.47,-115.88 755.56,-112.71 755.56,-112.71 770.72,-103.29 770.72,-103.29 775.81,-100.12 786.91,-96.95 792.91,-96.95 792.91,-96.95 839.98,-96.95 839.98,-96.95 845.98,-96.95 857.07,-100.12 862.17,-103.29 862.17,-103.29 877.32,-112.71 877.32,-112.71 882.42,-115.88 882.42,-122.21 877.32,-125.38"/>
<text text-anchor="middle" x="816.44" y="-115.95" font-family="Helvetica,sans-Serif" font-size="12.00">spy_enable</text>
</g>
<!-- config_ready&#45;&gt;spy_enable -->
<g id="edge9" class="edge">
<title>config_ready&#45;&gt;spy_enable</title>
<path fill="none" stroke="#b07aa1" stroke-width="1.8" stroke-dasharray="5,2" d="M639.22,-105.29C671.08,-107.77 709.22,-110.75 741.86,-113.3"/>
<polygon fill="#b07aa1" stroke="#b07aa1" stroke-width="1.8" points="741.48,-116.59 750.7,-114.15 741.97,-110.31 741.48,-116.59"/>
</g>
<!-- timing_ready&#45;&gt;trigger_enable -->
<g id="edge7" class="edge">
<title>timing_ready&#45;&gt;trigger_enable</title>
<path fill="none" stroke="#b07aa1" stroke-width="1.8" stroke-dasharray="5,2" d="M619.77,-159.52C634.45,-153.61 650.37,-146.33 664.16,-138.05 698.26,-117.56 699.7,-102.56 733.16,-81.05 741.69,-75.56 751.08,-70.33 760.37,-65.56"/>
<polygon fill="#b07aa1" stroke="#b07aa1" stroke-width="1.8" points="761.33,-68.6 767.98,-61.76 758.52,-62.96 761.33,-68.6"/>
</g>
<!-- timing_ready&#45;&gt;spy_enable -->
<g id="edge10" class="edge">
<title>timing_ready&#45;&gt;spy_enable</title>
<path fill="none" stroke="#b07aa1" stroke-width="1.8" stroke-dasharray="5,2" d="M638.69,-181.7C658.37,-181.86 679.82,-180.53 699.16,-176.05 724.21,-170.24 750.09,-158.24 771.06,-146.74"/>
<polygon fill="#b07aa1" stroke="#b07aa1" stroke-width="1.8" points="772.34,-149.51 778.63,-142.34 769.24,-144.02 772.34,-149.51"/>
</g>
<!-- alignment_ready&#45;&gt;trigger_enable -->
<g id="edge8" class="edge">
<title>alignment_ready&#45;&gt;trigger_enable</title>
<path fill="none" stroke="#b07aa1" stroke-width="1.8" stroke-dasharray="5,2" d="M663.43,-21.17C675.46,-21.52 687.62,-22.11 699.16,-23.05 713.5,-24.21 728.74,-26.09 743.32,-28.21"/>
<polygon fill="#b07aa1" stroke="#b07aa1" stroke-width="1.8" points="742.42,-31.56 751.79,-29.79 743.36,-25.33 742.42,-31.56"/>
</g>
<!-- alignment_ready&#45;&gt;spy_enable -->
<g id="edge11" class="edge">
<title>alignment_ready&#45;&gt;spy_enable</title>
<path fill="none" stroke="#b07aa1" stroke-width="1.8" stroke-dasharray="5,2" d="M622.51,-42.14C663.32,-58.41 720.65,-81.26 762.2,-97.82"/>
<polygon fill="#b07aa1" stroke="#b07aa1" stroke-width="1.8" points="760.88,-100.48 770.4,-100.89 763.21,-94.63 760.88,-100.48"/>
</g>
<!-- trigger_pipeline -->
<g id="node10" class="node">
<title>trigger_pipeline</title>
<path fill="#f8dcdd" stroke="#5a5a5a" stroke-width="1.7" d="M1123.23,-61.05C1123.23,-61.05 1080.23,-61.05 1080.23,-61.05 1074.23,-61.05 1068.23,-55.05 1068.23,-49.05 1068.23,-49.05 1068.23,-33.05 1068.23,-33.05 1068.23,-27.05 1074.23,-21.05 1080.23,-21.05 1080.23,-21.05 1123.23,-21.05 1123.23,-21.05 1129.23,-21.05 1135.23,-27.05 1135.23,-33.05 1135.23,-33.05 1135.23,-49.05 1135.23,-49.05 1135.23,-55.05 1129.23,-61.05 1123.23,-61.05"/>
<text text-anchor="middle" x="1101.73" y="-44.45" font-family="Helvetica,sans-Serif" font-size="12.00">Trigger</text>
<text text-anchor="middle" x="1101.73" y="-31.45" font-family="Helvetica,sans-Serif" font-size="12.00">pipeline</text>
</g>
<!-- trigger_enable&#45;&gt;trigger_pipeline -->
<g id="edge12" class="edge">
<title>trigger_enable&#45;&gt;trigger_pipeline</title>
<path fill="none" stroke="#8cd17d" stroke-width="1.7" stroke-dasharray="5,2" d="M900.52,-41.05C951.82,-41.05 1015.55,-41.05 1057.14,-41.05"/>
<polygon fill="#8cd17d" stroke="#8cd17d" stroke-width="1.7" points="1056.99,-44.2 1065.99,-41.05 1056.99,-37.9 1056.99,-44.2"/>
<text text-anchor="middle" x="981.73" y="-44.65" font-family="Helvetica,sans-Serif" font-size="10.50">gates trigger activity</text>
</g>
<!-- spy_buffer -->
<g id="node11" class="node">
<title>spy_buffer</title>
<path fill="#d9f0f0" stroke="#5a5a5a" stroke-width="1.7" d="M1127.73,-137.05C1127.73,-137.05 1075.73,-137.05 1075.73,-137.05 1069.73,-137.05 1063.73,-131.05 1063.73,-125.05 1063.73,-125.05 1063.73,-113.05 1063.73,-113.05 1063.73,-107.05 1069.73,-101.05 1075.73,-101.05 1075.73,-101.05 1127.73,-101.05 1127.73,-101.05 1133.73,-101.05 1139.73,-107.05 1139.73,-113.05 1139.73,-113.05 1139.73,-125.05 1139.73,-125.05 1139.73,-131.05 1133.73,-137.05 1127.73,-137.05"/>
<text text-anchor="middle" x="1101.73" y="-115.95" font-family="Helvetica,sans-Serif" font-size="12.00">Spybuffer</text>
</g>
<!-- spy_enable&#45;&gt;spy_buffer -->
<g id="edge13" class="edge">
<title>spy_enable&#45;&gt;spy_buffer</title>
<path fill="none" stroke="#8cd17d" stroke-width="1.7" stroke-dasharray="5,2" d="M888.2,-119.05C939.41,-119.05 1007.29,-119.05 1052.4,-119.05"/>
<polygon fill="#8cd17d" stroke="#8cd17d" stroke-width="1.7" points="1052.36,-122.2 1061.36,-119.05 1052.36,-115.9 1052.36,-122.2"/>
<text text-anchor="middle" x="981.73" y="-122.65" font-family="Helvetica,sans-Serif" font-size="10.50">gates spy capture</text>
</g>
</g>
</svg>
