<?xml version="1.0" encoding="UTF-8" standalone="no"?>
<!DOCTYPE svg PUBLIC "-//W3C//DTD SVG 1.1//EN"
 "http://www.w3.org/Graphics/SVG/1.1/DTD/svg11.dtd">
<!-- Generated by graphviz version 8.0.3 (20230416.2022)
 -->
<!-- Title: runtime_dataflow Pages: 1 -->
<svg width="1474pt" height="122pt"
 viewBox="0.00 0.00 1474.40 122.40" xmlns="http://www.w3.org/2000/svg" xmlns:xlink="http://www.w3.org/1999/xlink">
<g id="graph0" class="graph" transform="scale(1 1) rotate(0) translate(7.2 115.2)">
<title>runtime_dataflow</title>
<polygon fill="white" stroke="none" points="-7.2,7.2 -7.2,-115.2 1467.2,-115.2 1467.2,7.2 -7.2,7.2"/>
<!-- afe_block -->
<g id="node1" class="node">
<title>afe_block</title>
<path fill="#e8f4e2" stroke="#5a5a5a" stroke-width="1.7" stroke-dasharray="5,2" d="M90,-62C90,-62 12,-62 12,-62 6,-62 0,-56 0,-50 0,-50 0,-34 0,-34 0,-28 6,-22 12,-22 12,-22 90,-22 90,-22 96,-22 102,-28 102,-34 102,-34 102,-50 102,-50 102,-56 96,-62 90,-62"/>
<text text-anchor="middle" x="51" y="-45.4" font-family="Helvetica,sans-Serif" font-size="12.00">AFE block</text>
<text text-anchor="middle" x="51" y="-32.4" font-family="Helvetica,sans-Serif" font-size="12.00">5 AFEs · 40 ch</text>
</g>
<!-- frontend_boundary -->
<g id="node2" class="node">
<title>frontend_boundary</title>
<path fill="#e8f4e2" stroke="#5a5a5a" stroke-width="1.7" d="M305,-62C305,-62 254,-62 254,-62 248,-62 242,-56 242,-50 242,-50 242,-34 242,-34 242,-28 248,-22 254,-22 254,-22 305,-22 305,-22 311,-22 317,-28 317,-34 317,-34 317,-50 317,-50 317,-56 311,-62 305,-62"/>
<text text-anchor="middle" x="279.5" y="-45.4" font-family="Helvetica,sans-Serif" font-size="12.00">Frontend</text>
<text text-anchor="middle" x="279.5" y="-32.4" font-family="Helvetica,sans-Serif" font-size="12.00">boundary</text>
</g>
<!-- afe_block&#45;&gt;frontend_boundary -->
<g id="edge1" class="edge">
<title>afe_block&#45;&gt;frontend_boundary</title>
<path fill="none" stroke="#444444" stroke-width="1.9" d="M102.27,-42C140.7,-42 193.32,-42 231.04,-42"/>
<polygon fill="#444444" stroke="#444444" stroke-width="1.9" points="230.75,-45.15 239.75,-42 230.75,-38.85 230.75,-45.15"/>
<text text-anchor="middle" x="172" y="-45.6" font-family="Helvetica,sans-Serif" font-size="10.50">digitized samples</text>
</g>
<!-- xc_filter -->
<g id="node3" class="node">
<title>xc_filter</title>
<path fill="#f8dcdd" stroke="#5a5a5a" stroke-width="1.7" stroke-dasharray="5,2" d="M548,-108C548,-108 491,-108 491,-108 485,-108 479,-102 479,-96 479,-96 479,-80 479,-80 479,-74 485,-68 491,-68 491,-68 548,-68 548,-68 554,-68 560,-74 560,-80 560,-80 560,-96 560,-96 560,-102 554,-108 548,-108"/>
<text text-anchor="middle" x="519.5" y="-91.4" font-family="Helvetica,sans-Serif" font-size="12.00">XC filter /</text>
<text text-anchor="middle" x="519.5" y="-78.4" font-family="Helvetica,sans-Serif" font-size="12.00">self&#45;trigger</text>
</g>
<!-- frontend_boundary&#45;&gt;xc_filter -->
<g id="edge3" class="edge">
<title>frontend_boundary&#45;&gt;xc_filter</title>
<path fill="none" stroke="#444444" stroke-width="1.9" d="M317.43,-49.14C357.83,-56.95 422.86,-69.51 467.98,-78.23"/>
<polygon fill="#444444" stroke="#444444" stroke-width="1.9" points="467.27,-81.69 476.71,-80.31 468.47,-75.51 467.27,-81.69"/>
<text text-anchor="middle" x="398" y="-78.6" font-family="Helvetica,sans-Serif" font-size="10.50">aligned sample words</text>
</g>
<!-- spy_buffer -->
<g id="node8" class="node">
<title>spy_buffer</title>
<path fill="#d9f0f0" stroke="#5a5a5a" stroke-width="1.7" d="M545.5,-36C545.5,-36 493.5,-36 493.5,-36 487.5,-36 481.5,-30 481.5,-24 481.5,-24 481.5,-12 481.5,-12 481.5,-6 487.5,0 493.5,0 493.5,0 545.5,0 545.5,0 551.5,0 557.5,-6 557.5,-12 557.5,-12 557.5,-24 557.5,-24 557.5,-30 551.5,-36 545.5,-36"/>
<text text-anchor="middle" x="519.5" y="-14.9" font-family="Helvetica,sans-Serif" font-size="12.00">Spybuffer</text>
</g>
<!-- frontend_boundary&#45;&gt;spy_buffer -->
<g id="edge2" class="edge">
<title>frontend_boundary&#45;&gt;spy_buffer</title>
<path fill="none" stroke="#76b7b2" stroke-width="1.7" stroke-dasharray="1,5" d="M317.28,-30.99C326.57,-28.61 336.59,-26.4 346,-25 387.73,-18.81 435.73,-17.31 470.48,-17.22"/>
<polygon fill="#76b7b2" stroke="#76b7b2" stroke-width="1.7" points="470.27,-20.37 479.27,-17.23 470.28,-14.07 470.27,-20.37"/>
<text text-anchor="middle" x="398" y="-28.6" font-family="Helvetica,sans-Serif" font-size="10.50">debug tap</text>
</g>
<!-- peak_descriptors -->
<g id="node4" class="node">
<title>peak_descriptors</title>
<path fill="#f8dcdd" stroke="#5a5a5a" stroke-width="1.7" d="M804,-108C804,-108 745,-108 745,-108 739,-108 733,-102 733,-96 733,-96 733,-80 733,-80 733,-74 739,-68 745,-68 745,-68 804,-68 804,-68 810,-68 816,-74 816,-80 816,-80 816,-96 816,-96 816,-102 810,-108 804,-108"/>
<text text-anchor="middle" x="774.5" y="-91.4" font-family="Helvetica,sans-Serif" font-size="12.00">Peak</text>
<text text-anchor="middle" x="774.5" y="-78.4" font-family="Helvetica,sans-Serif" font-size="12.00">descriptors</text>
</g>
<!-- xc_filter&#45;&gt;peak_descriptors -->
<g id="edge4" class="edge">
<title>xc_filter&#45;&gt;peak_descriptors</title>
<path fill="none" stroke="#444444" stroke-width="1.9" d="M560.31,-88C603.95,-88 674.1,-88 721.92,-88"/>
<polygon fill="#444444" stroke="#444444" stroke-width="1.9" points="721.67,-91.15 730.67,-88 721.67,-84.85 721.67,-91.15"/>
<text text-anchor="middle" x="646.5" y="-91.6" font-family="Helvetica,sans-Serif" font-size="10.50">pulse&#45;domain candidate</text>
</g>
<!-- stc3_builder -->
<g id="node5" class="node">
<title>stc3_builder</title>
<path fill="#f8dcdd" stroke="#5a5a5a" stroke-width="1.7" d="M1031,-108C1031,-108 962,-108 962,-108 956,-108 950,-102 950,-96 950,-96 950,-80 950,-80 950,-74 956,-68 962,-68 962,-68 1031,-68 1031,-68 1037,-68 1043,-74 1043,-80 1043,-80 1043,-96 1043,-96 1043,-102 1037,-108 1031,-108"/>
<text text-anchor="middle" x="996.5" y="-91.4" font-family="Helvetica,sans-Serif" font-size="12.00">STC3 record</text>
<text text-anchor="middle" x="996.5" y="-78.4" font-family="Helvetica,sans-Serif" font-size="12.00">builder</text>
</g>
<!-- peak_descriptors&#45;&gt;stc3_builder -->
<g id="edge5" class="edge">
<title>peak_descriptors&#45;&gt;stc3_builder</title>
<path fill="none" stroke="#444444" stroke-width="1.9" d="M816.36,-88C850.75,-88 900.28,-88 938.55,-88"/>
<polygon fill="#444444" stroke="#444444" stroke-width="1.9" points="938.53,-91.15 947.53,-88 938.53,-84.85 938.53,-91.15"/>
<text text-anchor="middle" x="883" y="-91.6" font-family="Helvetica,sans-Serif" font-size="10.50">descriptor fields</text>
</g>
<!-- two_lane_mux -->
<g id="node6" class="node">
<title>two_lane_mux</title>
<path fill="#e9e0d8" stroke="#5a5a5a" stroke-width="1.7" d="M1245,-108C1245,-108 1186,-108 1186,-108 1180,-108 1174,-102 1174,-96 1174,-96 1174,-80 1174,-80 1174,-74 1180,-68 1186,-68 1186,-68 1245,-68 1245,-68 1251,-68 1257,-74 1257,-80 1257,-80 1257,-96 1257,-96 1257,-102 1251,-108 1245,-108"/>
<text text-anchor="middle" x="1215.5" y="-91.4" font-family="Helvetica,sans-Serif" font-size="12.00">Two&#45;lane</text>
<text text-anchor="middle" x="1215.5" y="-78.4" font-family="Helvetica,sans-Serif" font-size="12.00">multiplexer</text>
</g>
<!-- stc3_builder&#45;&gt;two_lane_mux -->
<g id="edge6" class="edge">
<title>stc3_builder&#45;&gt;two_lane_mux</title>
<path fill="none" stroke="#444444" stroke-width="1.9" d="M1043.25,-88C1078.19,-88 1126.34,-88 1162.69,-88"/>
<polygon fill="#444444" stroke="#444444" stroke-width="1.9" points="1162.57,-91.15 1171.57,-88 1162.57,-84.85 1162.57,-91.15"/>
<text text-anchor="middle" x="1108.5" y="-91.6" font-family="Helvetica,sans-Serif" font-size="10.50">framed records</text>
</g>
<!-- hermes_transport -->
<g id="node7" class="node">
<title>hermes_transport</title>
<path fill="#e9e0d8" stroke="#5a5a5a" stroke-width="1.7" stroke-dasharray="5,2" d="M1448,-108C1448,-108 1401,-108 1401,-108 1395,-108 1389,-102 1389,-96 1389,-96 1389,-80 1389,-80 1389,-74 1395,-68 1401,-68 1401,-68 1448,-68 1448,-68 1454,-68 1460,-74 1460,-80 1460,-80 1460,-96 1460,-96 1460,-102 1454,-108 1448,-108"/>
<text text-anchor="middle" x="1424.5" y="-91.4" font-family="Helvetica,sans-Serif" font-size="12.00">Hermes</text>
<text text-anchor="middle" x="1424.5" y="-78.4" font-family="Helvetica,sans-Serif" font-size="12.00">transport</text>
</g>
<!-- two_lane_mux&#45;&gt;hermes_transport -->
<g id="edge7" class="edge">
<title>two_lane_mux&#45;&gt;hermes_transport</title>
<path fill="none" stroke="#444444" stroke-width="1.9" d="M1257.4,-88C1292.1,-88 1341.84,-88 1377.84,-88"/>
<polygon fill="#444444" stroke="#444444" stroke-width="1.9" points="1377.54,-91.15 1386.54,-88 1377.54,-84.85 1377.54,-91.15"/>
<text text-anchor="middle" x="1323" y="-91.6" font-family="Helvetica,sans-Serif" font-size="10.50">payload stream</text>
</g>
</g>
</svg>
