<?xml version="1.0" encoding="UTF-8" standalone="no"?>
<!DOCTYPE svg PUBLIC "-//W3C//DTD SVG 1.1//EN"
 "http://www.w3.org/Graphics/SVG/1.1/DTD/svg11.dtd">
<!-- Generated by graphviz version 8.0.3 (20230416.2022)
 -->
<!-- Title: subsystem_hierarchy Pages: 1 -->
<svg width="311pt" height="706pt"
 viewBox="0.00 0.00 311.40 706.40" xmlns="http://www.w3.org/2000/svg" xmlns:xlink="http://www.w3.org/1999/xlink">
<g id="graph0" class="graph" transform="scale(1 1) rotate(0) translate(7.2 699.2)">
<title>subsystem_hierarchy</title>
<polygon fill="white" stroke="none" points="-7.2,7.2 -7.2,-699.2 304.2,-699.2 304.2,7.2 -7.2,7.2"/>
<!-- repo_firmware -->
<g id="node1" class="node">
<title>repo_firmware</title>
<polygon fill="#f6f6f6" stroke="#5a5a5a" stroke-width="2" points="115,-362 112,-366 91,-366 88,-362 0,-362 0,-326 115,-326 115,-362"/>
<text text-anchor="middle" x="57.5" y="-340.9" font-family="Helvetica,sans-Serif" font-size="12.00">daphne&#45;firmware</text>
</g>
<!-- control_plane -->
<g id="node2" class="node">
<title>control_plane</title>
<path fill="#dcebfa" stroke="#5a5a5a" stroke-width="1.7" d="M280.5,-692C280.5,-692 207.5,-692 207.5,-692 201.5,-692 195.5,-686 195.5,-680 195.5,-680 195.5,-668 195.5,-668 195.5,-662 201.5,-656 207.5,-656 207.5,-656 280.5,-656 280.5,-656 286.5,-656 292.5,-662 292.5,-668 292.5,-668 292.5,-680 292.5,-680 292.5,-686 286.5,-692 280.5,-692"/>
<text text-anchor="middle" x="244" y="-670.9" font-family="Helvetica,sans-Serif" font-size="12.00">Control plane</text>
</g>
<!-- repo_firmware&#45;&gt;control_plane -->
<g id="edge1" class="edge">
<title>repo_firmware&#45;&gt;control_plane</title>
<path fill="none" stroke="#7a7a7a" stroke-width="1.6" d="M63.49,-362.77C77.21,-411.76 119.34,-545.89 191,-635 194.99,-639.96 199.74,-644.62 204.73,-648.88"/>
<polygon fill="#7a7a7a" stroke="#7a7a7a" stroke-width="1.6" points="203.24,-651.52 212.25,-654.66 207.16,-646.59 203.24,-651.52"/>
</g>
<!-- analog_control -->
<g id="node3" class="node">
<title>analog_control</title>
<path fill="#dff0df" stroke="#5a5a5a" stroke-width="1.7" d="M263.5,-613C263.5,-613 224.5,-613 224.5,-613 218.5,-613 212.5,-607 212.5,-601 212.5,-601 212.5,-585 212.5,-585 212.5,-579 218.5,-573 224.5,-573 224.5,-573 263.5,-573 263.5,-573 269.5,-573 275.5,-579 275.5,-585 275.5,-585 275.5,-601 275.5,-601 275.5,-607 269.5,-613 263.5,-613"/>
<text text-anchor="middle" x="244" y="-596.4" font-family="Helvetica,sans-Serif" font-size="12.00">Analog</text>
<text text-anchor="middle" x="244" y="-583.4" font-family="Helvetica,sans-Serif" font-size="12.00">control</text>
</g>
<!-- repo_firmware&#45;&gt;analog_control -->
<g id="edge2" class="edge">
<title>repo_firmware&#45;&gt;analog_control</title>
<path fill="none" stroke="#7a7a7a" stroke-width="1.6" d="M67.8,-362.96C87.19,-401.35 134.86,-489.91 191,-552 195.3,-556.75 200.19,-561.38 205.21,-565.71"/>
<polygon fill="#7a7a7a" stroke="#7a7a7a" stroke-width="1.6" points="203.75,-568.41 212.71,-571.69 207.75,-563.54 203.75,-568.41"/>
</g>
<!-- frontend_boundary -->
<g id="node4" class="node">
<title>frontend_boundary</title>
<path fill="#e8f4e2" stroke="#5a5a5a" stroke-width="1.7" d="M269.5,-530C269.5,-530 218.5,-530 218.5,-530 212.5,-530 206.5,-524 206.5,-518 206.5,-518 206.5,-502 206.5,-502 206.5,-496 212.5,-490 218.5,-490 218.5,-490 269.5,-490 269.5,-490 275.5,-490 281.5,-496 281.5,-502 281.5,-502 281.5,-518 281.5,-518 281.5,-524 275.5,-530 269.5,-530"/>
<text text-anchor="middle" x="244" y="-513.4" font-family="Helvetica,sans-Serif" font-size="12.00">Frontend</text>
<text text-anchor="middle" x="244" y="-500.4" font-family="Helvetica,sans-Serif" font-size="12.00">boundary</text>
</g>
<!-- repo_firmware&#45;&gt;frontend_boundary -->
<g id="edge3" class="edge">
<title>repo_firmware&#45;&gt;frontend_boundary</title>
<path fill="none" stroke="#7a7a7a" stroke-width="1.6" d="M77.32,-362.76C102.57,-387.71 149.1,-432.84 191,-469 196.38,-473.64 202.19,-478.43 207.92,-483.03"/>
<polygon fill="#7a7a7a" stroke="#7a7a7a" stroke-width="1.6" points="206.17,-485.46 215.18,-488.59 210.09,-480.53 206.17,-485.46"/>
</g>
<!-- timing_subsystem -->
<g id="node5" class="node">
<title>timing_subsystem</title>
<path fill="#fce7d3" stroke="#5a5a5a" stroke-width="1.7" d="M273,-447C273,-447 215,-447 215,-447 209,-447 203,-441 203,-435 203,-435 203,-419 203,-419 203,-413 209,-407 215,-407 215,-407 273,-407 273,-407 279,-407 285,-413 285,-419 285,-419 285,-435 285,-435 285,-441 279,-447 273,-447"/>
<text text-anchor="middle" x="244" y="-430.4" font-family="Helvetica,sans-Serif" font-size="12.00">Timing</text>
<text text-anchor="middle" x="244" y="-417.4" font-family="Helvetica,sans-Serif" font-size="12.00">subsystem</text>
</g>
<!-- repo_firmware&#45;&gt;timing_subsystem -->
<g id="edge4" class="edge">
<title>repo_firmware&#45;&gt;timing_subsystem</title>
<path fill="none" stroke="#7a7a7a" stroke-width="1.6" d="M100.37,-362.83C127.76,-375.16 163.7,-391.32 192.64,-404.35"/>
<polygon fill="#7a7a7a" stroke="#7a7a7a" stroke-width="1.6" points="191.07,-407.99 200.57,-408.81 193.65,-402.25 191.07,-407.99"/>
</g>
<!-- trigger_pipeline -->
<g id="node6" class="node">
<title>trigger_pipeline</title>
<path fill="#f8dcdd" stroke="#5a5a5a" stroke-width="1.7" d="M265.5,-364C265.5,-364 222.5,-364 222.5,-364 216.5,-364 210.5,-358 210.5,-352 210.5,-352 210.5,-336 210.5,-336 210.5,-330 216.5,-324 222.5,-324 222.5,-324 265.5,-324 265.5,-324 271.5,-324 277.5,-330 277.5,-336 277.5,-336 277.5,-352 277.5,-352 277.5,-358 271.5,-364 265.5,-364"/>
<text text-anchor="middle" x="244" y="-347.4" font-family="Helvetica,sans-Serif" font-size="12.00">Trigger</text>
<text text-anchor="middle" x="244" y="-334.4" font-family="Helvetica,sans-Serif" font-size="12.00">pipeline</text>
</g>
<!-- repo_firmware&#45;&gt;trigger_pipeline -->
<g id="edge5" class="edge">
<title>repo_firmware&#45;&gt;trigger_pipeline</title>
<path fill="none" stroke="#7a7a7a" stroke-width="1.6" d="M115.87,-344C142.74,-344 174.25,-344 199.18,-344"/>
<polygon fill="#7a7a7a" stroke="#7a7a7a" stroke-width="1.6" points="199.13,-347.15 208.13,-344 199.13,-340.85 199.13,-347.15"/>
</g>
<!-- transport_subsystem -->
<g id="node7" class="node">
<title>transport_subsystem</title>
<path fill="#e9e0d8" stroke="#5a5a5a" stroke-width="1.7" d="M270,-281C270,-281 218,-281 218,-281 212,-281 206,-275 206,-269 206,-269 206,-253 206,-253 206,-247 212,-241 218,-241 218,-241 270,-241 270,-241 276,-241 282,-247 282,-253 282,-253 282,-269 282,-269 282,-275 276,-281 270,-281"/>
<text text-anchor="middle" x="244" y="-264.4" font-family="Helvetica,sans-Serif" font-size="12.00">Readout /</text>
<text text-anchor="middle" x="244" y="-251.4" font-family="Helvetica,sans-Serif" font-size="12.00">transport</text>
</g>
<!-- repo_firmware&#45;&gt;transport_subsystem -->
<g id="edge6" class="edge">
<title>repo_firmware&#45;&gt;transport_subsystem</title>
<path fill="none" stroke="#7a7a7a" stroke-width="1.6" d="M100.37,-325.17C128.83,-312.36 166.53,-295.4 196.02,-282.13"/>
<polygon fill="#7a7a7a" stroke="#7a7a7a" stroke-width="1.6" points="196.77,-284.35 203.68,-277.79 194.18,-278.61 196.77,-284.35"/>
</g>
<!-- spy_buffer -->
<g id="node8" class="node">
<title>spy_buffer</title>
<path fill="#d9f0f0" stroke="#5a5a5a" stroke-width="1.7" d="M270,-198C270,-198 218,-198 218,-198 212,-198 206,-192 206,-186 206,-186 206,-174 206,-174 206,-168 212,-162 218,-162 218,-162 270,-162 270,-162 276,-162 282,-168 282,-174 282,-174 282,-186 282,-186 282,-192 276,-198 270,-198"/>
<text text-anchor="middle" x="244" y="-176.9" font-family="Helvetica,sans-Serif" font-size="12.00">Spybuffer</text>
</g>
<!-- repo_firmware&#45;&gt;spy_buffer -->
<g id="edge7" class="edge">
<title>repo_firmware&#45;&gt;spy_buffer</title>
<path fill="none" stroke="#7a7a7a" stroke-width="1.6" d="M77.28,-325.33C102.49,-300.53 148.97,-255.69 191,-220 196.91,-214.98 203.35,-209.81 209.63,-204.91"/>
<polygon fill="#7a7a7a" stroke="#7a7a7a" stroke-width="1.6" points="211.81,-207.43 217.01,-199.45 207.96,-202.44 211.81,-207.43"/>
</g>
<!-- verification_layer -->
<g id="node9" class="node">
<title>verification_layer</title>
<path fill="#e9e3f6" stroke="#5a5a5a" stroke-width="1.7" d="M285,-119C285,-119 203,-119 203,-119 197,-119 191,-113 191,-107 191,-107 191,-91 191,-91 191,-85 197,-79 203,-79 203,-79 285,-79 285,-79 291,-79 297,-85 297,-91 297,-91 297,-107 297,-107 297,-113 291,-119 285,-119"/>
<text text-anchor="middle" x="244" y="-102.4" font-family="Helvetica,sans-Serif" font-size="12.00">Verification</text>
<text text-anchor="middle" x="244" y="-89.4" font-family="Helvetica,sans-Serif" font-size="12.00">formal + smoke</text>
</g>
<!-- repo_firmware&#45;&gt;verification_layer -->
<g id="edge8" class="edge">
<title>repo_firmware&#45;&gt;verification_layer</title>
<path fill="none" stroke="#7a7a7a" stroke-width="1.6" d="M68.11,-325.29C87.9,-287.8 135.98,-201.89 191,-141 195.6,-135.91 200.84,-130.94 206.19,-126.3"/>
<polygon fill="#7a7a7a" stroke="#7a7a7a" stroke-width="1.6" points="208.69,-128.48 213.6,-120.3 204.66,-123.64 208.69,-128.48"/>
</g>
<!-- build_system -->
<g id="node10" class="node">
<title>build_system</title>
<path fill="#e7e7e7" stroke="#5a5a5a" stroke-width="1.7" d="M278.5,-36C278.5,-36 209.5,-36 209.5,-36 203.5,-36 197.5,-30 197.5,-24 197.5,-24 197.5,-12 197.5,-12 197.5,-6 203.5,0 209.5,0 209.5,0 278.5,0 278.5,0 284.5,0 290.5,-6 290.5,-12 290.5,-12 290.5,-24 290.5,-24 290.5,-30 284.5,-36 278.5,-36"/>
<text text-anchor="middle" x="244" y="-14.9" font-family="Helvetica,sans-Serif" font-size="12.00">Build system</text>
</g>
<!-- repo_firmware&#45;&gt;build_system -->
<g id="edge9" class="edge">
<title>repo_firmware&#45;&gt;build_system</title>
<path fill="none" stroke="#7a7a7a" stroke-width="1.6" d="M63.74,-325.26C77.91,-276.95 120.77,-145.83 191,-58 195.25,-52.69 200.34,-47.68 205.66,-43.12"/>
<polygon fill="#7a7a7a" stroke="#7a7a7a" stroke-width="1.6" points="208.06,-45.43 213.11,-37.34 204.12,-40.52 208.06,-45.43"/>
</g>
</g>
</svg>
